<svg xmlns="http://www.w3.org/2000/svg" xmlns:xlink="http://www.w3.org/1999/xlink" width="660" height="274" viewBox="0 0 660 274">
  <defs>
    <radialGradient id="radial-gradient" cx="0.5" cy="0.5" r="0.5" gradientUnits="objectBoundingBox">
      <stop offset="0" stop-color="#fff"/>
      <stop offset="0.192" stop-color="#fff"/>
      <stop offset="1" stop-color="#fff" stop-opacity="0"/>
    </radialGradient>
    <filter id="Pfad_1449" x="357.482" y="77.172" width="238.164" height="57.056" filterUnits="userSpaceOnUse">
      <feOffset input="SourceAlpha"/>
      <feGaussianBlur stdDeviation="5" result="blur"/>
      <feFlood flood-color="#fff"/>
      <feComposite operator="in" in2="blur"/>
      <feComposite in="SourceGraphic"/>
    </filter>
    <filter id="Pfad_1450" x="356.988" y="112.172" width="150.08" height="57.056" filterUnits="userSpaceOnUse">
      <feOffset input="SourceAlpha"/>
      <feGaussianBlur stdDeviation="5" result="blur-2"/>
      <feFlood flood-color="#fff"/>
      <feComposite operator="in" in2="blur-2"/>
      <feComposite in="SourceGraphic"/>
    </filter>
  </defs>
  <g id="Gruppe_439" data-name="Gruppe 439" transform="translate(-1090 -534)">
    <ellipse id="Ellipse_39" data-name="Ellipse 39" cx="330" cy="137" rx="330" ry="137" transform="translate(1090 534)" fill="url(#radial-gradient)"/>
    <g id="Gruppe_422" data-name="Gruppe 422" transform="translate(791 -277)">
      <path id="Pfad_1448" data-name="Pfad 1448" d="M15.84-63.27H9.72L8.64-61.83c-2.07,2.79-3.78,3.96-7.29,4.41l-.72.09v7.02H6.57V0h9.27Zm14.85,51.3H21.6V0h9.09Zm33.12.81V-51.84c0-7.83-3.87-11.7-11.7-11.7H47.34c-7.83,0-11.7,3.87-11.7,11.7v40.68c0,7.83,3.87,11.7,11.7,11.7h4.77C59.94.54,63.81-3.33,63.81-11.16ZM54.27-51.39v39.78c0,2.52-1.17,3.69-3.6,3.69h-1.8c-2.52,0-3.69-1.17-3.69-3.69V-51.39c0-2.52,1.17-3.69,3.69-3.69h1.8C53.1-55.08,54.27-53.91,54.27-51.39ZM97.38-11.16V-51.84c0-7.83-3.87-11.7-11.7-11.7H80.91c-7.83,0-11.7,3.87-11.7,11.7v40.68c0,7.83,3.87,11.7,11.7,11.7h4.77C93.51.54,97.38-3.33,97.38-11.16ZM87.84-51.39v39.78c0,2.52-1.17,3.69-3.6,3.69h-1.8c-2.52,0-3.69-1.17-3.69-3.69V-51.39c0-2.52,1.17-3.69,3.69-3.69h1.8C86.67-55.08,87.84-53.91,87.84-51.39Zm43.11,40.23V-51.84c0-7.83-3.87-11.7-11.7-11.7h-4.77c-7.83,0-11.7,3.87-11.7,11.7v40.68c0,7.83,3.87,11.7,11.7,11.7h4.77C127.08.54,130.95-3.33,130.95-11.16Zm-9.54-40.23v39.78c0,2.52-1.17,3.69-3.6,3.69h-1.8c-2.52,0-3.69-1.17-3.69-3.69V-51.39c0-2.52,1.17-3.69,3.69-3.69h1.8C120.24-55.08,121.41-53.91,121.41-51.39Z" transform="translate(519 967)" fill="#040504"/>
      <path id="Pfad_1447" data-name="Pfad 1447" d="M-23.64.144a2.594,2.594,0,0,0,2.928-2.928v-7.392A2.594,2.594,0,0,0-23.64-13.1h-.528A2.594,2.594,0,0,0-27.1-10.176v7.392A2.594,2.594,0,0,0-24.168.144ZM-23.688-11.4a1.018,1.018,0,0,1,1.152,1.152v7.536A1.018,1.018,0,0,1-23.688-1.56h-.432a1.018,1.018,0,0,1-1.152-1.152v-7.536A1.018,1.018,0,0,1-24.12-11.4Zm8.3,11.4,2.352-12.96h-1.8L-16.368-2.832-17.9-12.96h-1.848L-17.4,0Zm9.552-5.808v-4.368A2.594,2.594,0,0,0-8.76-13.1h-.384a2.594,2.594,0,0,0-2.928,2.928v7.392A2.594,2.594,0,0,0-9.144.144h.384A2.594,2.594,0,0,0-5.832-2.784V-4.2H-7.608v1.488A1.018,1.018,0,0,1-8.76-1.56H-9.1a1.018,1.018,0,0,1-1.152-1.152v-3.1Zm-4.416-4.44A1.018,1.018,0,0,1-9.1-11.4h.288a1.018,1.018,0,0,1,1.152,1.152v2.712h-2.592ZM-4.248,0h1.824V-10.2a3.251,3.251,0,0,1,2.088-.816V-13.08c-.984,0-1.536.48-2.088,1.488V-12.96H-4.248Z" transform="translate(512 965)" fill="#585b5b"/>
      <g transform="matrix(1, 0, 0, 1, 299, 811)" filter="url(#Pfad_1449)">
        <path id="Pfad_1449-2" data-name="Pfad 1449" d="M4.522-26.6H1.482V0h3.04ZM15.124,0h3.8V-26.6H16.036V-7.41L11.628-26.6H7.448V0h2.888V-20.824ZM29.792-13.528l-3.686-2.66a2.746,2.746,0,0,1-1.368-2.546v-3.344a1.76,1.76,0,0,1,2.014-2.014h.532A1.76,1.76,0,0,1,29.3-22.078v4.9h2.964v-4.788c0-3.23-1.6-4.864-4.864-4.864h-.76c-3.306,0-4.94,1.634-4.94,4.94V-18.7a5.282,5.282,0,0,0,2.546,4.94l3.724,2.7A2.719,2.719,0,0,1,29.3-8.512v3.99a1.76,1.76,0,0,1-2.014,2.014h-.608a1.76,1.76,0,0,1-2.014-2.014v-5.7H21.7v5.586c0,3.23,1.6,4.864,4.864,4.864H27.4c3.306,0,4.94-1.634,4.94-4.94V-8.588A5.246,5.246,0,0,0,29.792-13.528ZM40.622,0V-23.788h3.99V-26.6H33.592v2.812h3.99V0ZM56.2,0,52.1-26.676H48.222L44.118,0h2.926l.608-4.446h4.9L53.2,0ZM50.084-21.926l2.09,14.744H48.032ZM58.292-26.6V0h8.056V-2.812H61.332V-26.6Zm10.3,0V0h8.056V-2.812H71.63V-26.6Zm10.3,0V0h8.436V-2.812h-5.4V-12.2h5.13v-2.774h-5.13v-8.816h5.32V-26.6ZM89.832,0h5.016c3.99,0,5.89-1.9,5.89-5.89V-20.71c0-3.99-1.9-5.89-5.89-5.89H89.832Zm3.04-23.826H94.7c2.052,0,3,1.026,3,3.078v14.9c0,2.052-.95,3.078-3,3.078H92.872Zm26.79-2.774L116.28-5.624,112.9-26.6H108.11V0H111V-22l3.648,22h3.116l3.648-22V0h2.964V-26.6ZM138.548,0l-4.1-26.676h-3.876L126.464,0h2.926L130-4.446h4.9L135.546,0ZM132.43-21.926l2.09,14.744h-4.142Zm15.846,11.7V-4.56a1.76,1.76,0,0,1-2.014,2.014h-.836a1.76,1.76,0,0,1-2.014-2.014V-22.04a1.76,1.76,0,0,1,2.014-2.014h.76A1.76,1.76,0,0,1,148.2-22.04v4.864h2.964v-4.788c0-3.268-1.6-4.864-4.864-4.864h-.988c-3.306,0-4.94,1.634-4.94,4.94V-4.712c0,3.306,1.634,4.94,4.94,4.94h.988c3.306,0,4.94-1.634,4.94-4.94v-5.51Zm8.664-4.788V-26.6H153.9V0h3.04V-12.16h4.94V0h3.04V-26.6h-3.04v11.59ZM170.886-26.6h-3.04V0h3.04ZM181.488,0h3.8V-26.6H182.4V-7.41L177.992-26.6h-4.18V0H176.7V-20.824Zm6.688-26.6V0h8.436V-2.812h-5.4V-12.2h5.13v-2.774h-5.13v-8.816h5.32V-26.6ZM207.1-13.528l-3.686-2.66a2.746,2.746,0,0,1-1.368-2.546v-3.344a1.76,1.76,0,0,1,2.014-2.014h.532a1.76,1.76,0,0,1,2.014,2.014v4.9h2.964v-4.788c0-3.23-1.6-4.864-4.864-4.864h-.76c-3.306,0-4.94,1.634-4.94,4.94V-18.7a5.282,5.282,0,0,0,2.546,4.94l3.724,2.7a2.719,2.719,0,0,1,1.33,2.546v3.99a1.76,1.76,0,0,1-2.014,2.014h-.608a1.76,1.76,0,0,1-2.014-2.014v-5.7h-2.964v5.586c0,3.23,1.6,4.864,4.864,4.864h.836c3.306,0,4.94-1.634,4.94-4.94V-8.588A5.246,5.246,0,0,0,207.1-13.528Z" transform="translate(371 119)" fill="#00b5ec"/>
      </g>
      <g transform="matrix(1, 0, 0, 1, 299, 811)" filter="url(#Pfad_1450)">
        <path id="Pfad_1450-2" data-name="Pfad 1450" d="M11.856-26.6H8.816L6.308-3.952,4.028-26.6H.988L4.218,0H8.17l2.09-19.076L12.426,0h3.952l3.23-26.6H16.644L14.288-3.952ZM32.6-4.712V-21.888c0-3.306-1.634-4.94-4.94-4.94h-1.14c-3.306,0-4.94,1.634-4.94,4.94V-4.712c0,3.306,1.634,4.94,4.94,4.94h1.14C30.97.228,32.6-1.406,32.6-4.712ZM29.564-22.04V-4.56A1.76,1.76,0,0,1,27.55-2.546h-.912A1.76,1.76,0,0,1,24.624-4.56V-22.04a1.76,1.76,0,0,1,2.014-2.014h.912A1.76,1.76,0,0,1,29.564-22.04Zm14.1,9.5c1.52-.608,2.356-1.786,2.356-4.18v-4.94c0-3.306-1.634-4.94-4.94-4.94H35.416V0h3.04V-11.172H40.7c1.6,0,2.318.722,2.318,2.318V0h3.04V-8.968C46.056-11.02,45.334-12.084,43.662-12.54Zm-.684-9.272v5.7a1.962,1.962,0,0,1-2.242,2.242h-2.28v-9.956h2.508A1.76,1.76,0,0,1,42.978-21.812Zm5.89-4.788V0h8.056V-2.812H51.908V-26.6ZM59.166,0h5.016c3.99,0,5.89-1.9,5.89-5.89V-20.71c0-3.99-1.9-5.89-5.89-5.89H59.166Zm3.04-23.826H64.03c2.052,0,3,1.026,3,3.078v14.9c0,2.052-.95,3.078-3,3.078H62.206ZM82.726-26.6h-3.04L77.178-3.952,74.9-26.6h-3.04L75.088,0H79.04l2.09-19.076L83.3,0h3.952l3.23-26.6H87.514L85.158-3.952Zm13.262,0h-3.04V0h3.04ZM98.914,0h5.016c3.99,0,5.89-1.9,5.89-5.89V-20.71c0-3.99-1.9-5.89-5.89-5.89H98.914Zm3.04-23.826h1.824c2.052,0,3,1.026,3,3.078v14.9c0,2.052-.95,3.078-3,3.078h-1.824ZM112.632-26.6V0h8.436V-2.812h-5.4V-12.2h5.13v-2.774h-5.13v-8.816h5.32V-26.6Z" transform="translate(371 154)" fill="#040504"/>
      </g>
    </g>
    <g id="Gruppe_423" data-name="Gruppe 423" transform="translate(249 -177)">
      <path id="Pfad_1443" data-name="Pfad 1443" d="M15.84-63.27H9.72L8.64-61.83c-2.07,2.79-3.78,3.96-7.29,4.41l-.72.09v7.02H6.57V0h9.27ZM50.22-11.16V-51.84c0-7.83-3.87-11.7-11.7-11.7H33.75c-7.83,0-11.7,3.87-11.7,11.7v40.68c0,7.83,3.87,11.7,11.7,11.7h4.77C46.35.54,50.22-3.33,50.22-11.16ZM40.68-51.39v39.78c0,2.52-1.17,3.69-3.6,3.69h-1.8c-2.52,0-3.69-1.17-3.69-3.69V-51.39c0-2.52,1.17-3.69,3.69-3.69h1.8C39.51-55.08,40.68-53.91,40.68-51.39ZM64.26-11.97H55.17V0h9.09Zm33.12.81V-51.84c0-7.83-3.87-11.7-11.7-11.7H80.91c-7.83,0-11.7,3.87-11.7,11.7v40.68c0,7.83,3.87,11.7,11.7,11.7h4.77C93.51.54,97.38-3.33,97.38-11.16ZM87.84-51.39v39.78c0,2.52-1.17,3.69-3.6,3.69h-1.8c-2.52,0-3.69-1.17-3.69-3.69V-51.39c0-2.52,1.17-3.69,3.69-3.69h1.8C86.67-55.08,87.84-53.91,87.84-51.39Zm43.11,40.23V-51.84c0-7.83-3.87-11.7-11.7-11.7h-4.77c-7.83,0-11.7,3.87-11.7,11.7v40.68c0,7.83,3.87,11.7,11.7,11.7h4.77C127.08.54,130.95-3.33,130.95-11.16Zm-9.54-40.23v39.78c0,2.52-1.17,3.69-3.6,3.69h-1.8c-2.52,0-3.69-1.17-3.69-3.69V-51.39c0-2.52,1.17-3.69,3.69-3.69h1.8C120.24-55.08,121.41-53.91,121.41-51.39Zm43.11,40.23V-51.84c0-7.83-3.87-11.7-11.7-11.7h-4.77c-7.83,0-11.7,3.87-11.7,11.7v40.68c0,7.83,3.87,11.7,11.7,11.7h4.77C160.65.54,164.52-3.33,164.52-11.16Zm-9.54-40.23v39.78c0,2.52-1.17,3.69-3.6,3.69h-1.8c-2.52,0-3.69-1.17-3.69-3.69V-51.39c0-2.52,1.17-3.69,3.69-3.69h1.8C153.81-55.08,154.98-53.91,154.98-51.39Zm23.58,39.42h-9.09V0h9.09Zm33.12.81V-51.84c0-7.83-3.87-11.7-11.7-11.7h-4.77c-7.83,0-11.7,3.87-11.7,11.7v40.68c0,7.83,3.87,11.7,11.7,11.7h4.77C207.81.54,211.68-3.33,211.68-11.16Zm-9.54-40.23v39.78c0,2.52-1.17,3.69-3.6,3.69h-1.8c-2.52,0-3.69-1.17-3.69-3.69V-51.39c0-2.52,1.17-3.69,3.69-3.69h1.8C200.97-55.08,202.14-53.91,202.14-51.39Zm43.11,40.23V-51.84c0-7.83-3.87-11.7-11.7-11.7h-4.77c-7.83,0-11.7,3.87-11.7,11.7v40.68c0,7.83,3.87,11.7,11.7,11.7h4.77C241.38.54,245.25-3.33,245.25-11.16Zm-9.54-40.23v39.78c0,2.52-1.17,3.69-3.6,3.69h-1.8c-2.52,0-3.69-1.17-3.69-3.69V-51.39c0-2.52,1.17-3.69,3.69-3.69h1.8C234.54-55.08,235.71-53.91,235.71-51.39Zm43.11,40.23V-51.84c0-7.83-3.87-11.7-11.7-11.7h-4.77c-7.83,0-11.7,3.87-11.7,11.7v40.68c0,7.83,3.87,11.7,11.7,11.7h4.77C274.95.54,278.82-3.33,278.82-11.16Zm-9.54-40.23v39.78c0,2.52-1.17,3.69-3.6,3.69h-1.8c-2.52,0-3.69-1.17-3.69-3.69V-51.39c0-2.52,1.17-3.69,3.69-3.69h1.8C268.11-55.08,269.28-53.91,269.28-51.39Z" transform="translate(914 967)" fill="#040504"/>
      <path id="Pfad_1444" data-name="Pfad 1444" d="M-23.64.144a2.594,2.594,0,0,0,2.928-2.928v-7.392A2.594,2.594,0,0,0-23.64-13.1h-.528A2.594,2.594,0,0,0-27.1-10.176v7.392A2.594,2.594,0,0,0-24.168.144ZM-23.688-11.4a1.018,1.018,0,0,1,1.152,1.152v7.536A1.018,1.018,0,0,1-23.688-1.56h-.432a1.018,1.018,0,0,1-1.152-1.152v-7.536A1.018,1.018,0,0,1-24.12-11.4Zm8.3,11.4,2.352-12.96h-1.8L-16.368-2.832-17.9-12.96h-1.848L-17.4,0Zm9.552-5.808v-4.368A2.594,2.594,0,0,0-8.76-13.1h-.384a2.594,2.594,0,0,0-2.928,2.928v7.392A2.594,2.594,0,0,0-9.144.144h.384A2.594,2.594,0,0,0-5.832-2.784V-4.2H-7.608v1.488A1.018,1.018,0,0,1-8.76-1.56H-9.1a1.018,1.018,0,0,1-1.152-1.152v-3.1Zm-4.416-4.44A1.018,1.018,0,0,1-9.1-11.4h.288a1.018,1.018,0,0,1,1.152,1.152v2.712h-2.592ZM-4.248,0h1.824V-10.2a3.251,3.251,0,0,1,2.088-.816V-13.08c-.984,0-1.536.48-2.088,1.488V-12.96H-4.248Z" transform="translate(904 965)" fill="#585b5b"/>
      <path id="Pfad_1445" data-name="Pfad 1445" d="M4.484-9.994h2.2c3.306,0,4.94-1.634,4.94-4.94V-21.66c0-3.306-1.634-4.94-4.94-4.94H1.444V0h3.04Zm4.1-11.818v7.03a1.76,1.76,0,0,1-2.014,2.014H4.484V-23.826h2.09A1.76,1.76,0,0,1,8.588-21.812ZM22.344-12.54c1.52-.608,2.356-1.786,2.356-4.18v-4.94c0-3.306-1.634-4.94-4.94-4.94H14.1V0h3.04V-11.172H19.38c1.6,0,2.318.722,2.318,2.318V0h3.04V-8.968C24.738-11.02,24.016-12.084,22.344-12.54Zm-.684-9.272v5.7a1.962,1.962,0,0,1-2.242,2.242h-2.28v-9.956h2.508A1.76,1.76,0,0,1,21.66-21.812Zm16.834,17.1V-21.888c0-3.306-1.634-4.94-4.94-4.94h-1.14c-3.306,0-4.94,1.634-4.94,4.94V-4.712c0,3.306,1.634,4.94,4.94,4.94h1.14C36.86.228,38.494-1.406,38.494-4.712ZM35.454-22.04V-4.56A1.76,1.76,0,0,1,33.44-2.546h-.912A1.76,1.76,0,0,1,30.514-4.56V-22.04a1.76,1.76,0,0,1,2.014-2.014h.912A1.76,1.76,0,0,1,35.454-22.04ZM41.306,0h5.016c3.99,0,5.89-1.9,5.89-5.89V-20.71c0-3.99-1.9-5.89-5.89-5.89H41.306Zm3.04-23.826H46.17c2.052,0,3,1.026,3,3.078v14.9c0,2.052-.95,3.078-3,3.078H44.346ZM65.816-26.6h-3.04V-4.56a1.76,1.76,0,0,1-2.014,2.014H60.04A1.76,1.76,0,0,1,58.026-4.56V-26.6h-3.04V-4.712c0,3.306,1.634,4.94,4.94,4.94h.95c3.306,0,4.94-1.634,4.94-4.94ZM76.494-10.222V-4.56A1.76,1.76,0,0,1,74.48-2.546h-.836A1.76,1.76,0,0,1,71.63-4.56V-22.04a1.76,1.76,0,0,1,2.014-2.014h.76a1.76,1.76,0,0,1,2.014,2.014v4.864h2.964v-4.788c0-3.268-1.6-4.864-4.864-4.864H73.53c-3.306,0-4.94,1.634-4.94,4.94V-4.712c0,3.306,1.634,4.94,4.94,4.94h.988c3.306,0,4.94-1.634,4.94-4.94v-5.51ZM82.118-26.6V0h8.436V-2.812h-5.4V-12.2h5.13v-2.774h-5.13v-8.816h5.32V-26.6ZM93.062,0h5.016c3.99,0,5.89-1.9,5.89-5.89V-20.71c0-3.99-1.9-5.89-5.89-5.89H93.062ZM96.1-23.826h1.824c2.052,0,3,1.026,3,3.078v14.9c0,2.052-.95,3.078-3,3.078H96.1Zm23.218,10.3-3.686-2.66a2.746,2.746,0,0,1-1.368-2.546v-3.344a1.76,1.76,0,0,1,2.014-2.014h.532a1.76,1.76,0,0,1,2.014,2.014v4.9h2.964v-4.788c0-3.23-1.6-4.864-4.864-4.864h-.76c-3.306,0-4.94,1.634-4.94,4.94V-18.7a5.282,5.282,0,0,0,2.546,4.94l3.724,2.7a2.719,2.719,0,0,1,1.33,2.546v3.99a1.76,1.76,0,0,1-2.014,2.014H116.2a1.76,1.76,0,0,1-2.014-2.014v-5.7h-2.964v5.586c0,3.23,1.6,4.864,4.864,4.864h.836c3.306,0,4.94-1.634,4.94-4.94V-8.588A5.246,5.246,0,0,0,119.32-13.528ZM127.6-15.01V-26.6h-3.04V0h3.04V-12.16h4.94V0h3.04V-26.6h-3.04v11.59ZM149.758,0l-4.1-26.676h-3.876L137.674,0H140.6l.608-4.446h4.9L146.756,0ZM143.64-21.926l2.09,14.744h-4.142ZM163.21,0l-5.32-13.528L163.362-26.6h-3.23l-5.244,12.882V-26.6h-3.04V0h3.04V-13.072L159.866,0ZM165-26.6V0h8.436V-2.812h-5.4V-12.2h5.13v-2.774h-5.13v-8.816h5.32V-26.6ZM183.92-13.528l-3.686-2.66a2.746,2.746,0,0,1-1.368-2.546v-3.344a1.76,1.76,0,0,1,2.014-2.014h.532a1.76,1.76,0,0,1,2.014,2.014v4.9h2.964v-4.788c0-3.23-1.6-4.864-4.864-4.864h-.76c-3.306,0-4.94,1.634-4.94,4.94V-18.7a5.282,5.282,0,0,0,2.546,4.94l3.724,2.7a2.719,2.719,0,0,1,1.33,2.546v3.99a1.76,1.76,0,0,1-2.014,2.014H180.8a1.76,1.76,0,0,1-2.014-2.014v-5.7h-2.964v5.586c0,3.23,1.6,4.864,4.864,4.864h.836c3.306,0,4.94-1.634,4.94-4.94V-8.588A5.246,5.246,0,0,0,183.92-13.528Z" transform="translate(1212 930)" fill="#00b5ec"/>
      <path id="Pfad_1446" data-name="Pfad 1446" d="M4.484-9.994h2.2c3.306,0,4.94-1.634,4.94-4.94V-21.66c0-3.306-1.634-4.94-4.94-4.94H1.444V0h3.04Zm4.1-11.818v7.03a1.76,1.76,0,0,1-2.014,2.014H4.484V-23.826h2.09A1.76,1.76,0,0,1,8.588-21.812ZM14.1-26.6V0h8.436V-2.812h-5.4V-12.2h5.13v-2.774h-5.13v-8.816h5.32V-26.6Zm19.19,14.06c1.52-.608,2.356-1.786,2.356-4.18v-4.94c0-3.306-1.634-4.94-4.94-4.94H25.042V0h3.04V-11.172h2.242c1.6,0,2.318.722,2.318,2.318V0h3.04V-8.968C35.682-11.02,34.96-12.084,33.288-12.54ZM32.6-21.812v5.7a1.962,1.962,0,0,1-2.242,2.242h-2.28v-9.956H30.59A1.76,1.76,0,0,1,32.6-21.812ZM53.58-26.6h-3L47.766-13.566,45.068-26.6H41.952L46.246-9.082V0h3.04V-9.31Zm1.748,0V0h8.436V-2.812h-5.4V-12.2H63.5v-2.774h-5.13v-8.816h5.32V-26.6ZM77.368,0l-4.1-26.676H69.388L65.284,0H68.21l.608-4.446h4.9L74.366,0ZM71.25-21.926,73.34-7.182H69.2ZM87.7-12.54c1.52-.608,2.356-1.786,2.356-4.18v-4.94c0-3.306-1.634-4.94-4.94-4.94H79.458V0H82.5V-11.172H84.74c1.6,0,2.318.722,2.318,2.318V0H90.1V-8.968C90.1-11.02,89.376-12.084,87.7-12.54Zm-.684-9.272v5.7a1.962,1.962,0,0,1-2.242,2.242H82.5v-9.956h2.508A1.76,1.76,0,0,1,87.02-21.812Z" transform="translate(1212 965)" fill="#040504"/>
    </g>
  </g>
</svg>
