<?xml version="1.0" standalone="no"?>
<!DOCTYPE svg PUBLIC "-//W3C//DTD SVG 20010904//EN"
 "http://www.w3.org/TR/2001/REC-SVG-20010904/DTD/svg10.dtd">
<svg version="1.0" xmlns="http://www.w3.org/2000/svg"
 width="1903.000000pt" height="930.000000pt" viewBox="0 0 1903.000000 930.000000"
 preserveAspectRatio="xMidYMid meet">

<g transform="translate(0.000000,930.000000) scale(0.100000,-0.100000)"
fill="#000000" stroke="none">
<path d="M0 7981 l0 -1319 101 -243 c56 -134 116 -280 134 -324 18 -44 47
-114 65 -155 17 -41 44 -106 60 -145 15 -38 58 -142 95 -230 92 -218 107 -256
150 -360 41 -101 64 -155 125 -300 23 -55 58 -138 77 -185 19 -47 45 -110 58
-140 13 -30 40 -95 60 -145 20 -49 47 -115 60 -145 12 -30 69 -165 125 -300
56 -135 113 -270 125 -300 13 -30 39 -93 58 -140 52 -128 207 -501 222 -535
19 -42 89 -213 105 -255 76 -196 270 -339 540 -396 111 -23 306 -24 415 -1
238 49 848 166 895 171 53 7 118 19 350 67 58 12 124 23 147 23 24 1 43 4 43
7 0 4 17 9 38 12 20 2 50 8 66 11 15 4 47 8 70 10 22 2 54 9 70 15 15 6 40 12
55 12 14 1 40 5 56 10 34 9 74 17 124 24 18 3 37 8 43 11 12 8 63 16 110 18
21 0 38 4 38 7 0 7 54 17 130 25 25 3 56 9 70 14 14 5 48 12 75 15 28 3 78 11
113 18 35 8 75 12 89 9 20 -4 24 -2 18 9 -7 11 -6 12 7 2 8 -7 17 -11 19 -9 2
2 21 7 43 10 21 4 42 9 47 11 4 3 24 6 43 7 19 1 35 4 34 7 -2 18 3 24 11 12
6 -10 13 -10 29 -2 11 6 28 8 36 5 9 -4 22 -2 29 4 6 5 19 9 27 10 8 0 58 8
110 17 52 9 115 20 140 25 25 4 48 6 53 3 4 -2 7 0 7 4 0 5 51 15 113 22 61 7
114 16 117 20 3 4 25 8 50 10 25 2 49 6 55 9 10 7 37 11 88 12 15 1 25 4 23 8
-2 4 12 8 32 9 32 2 125 18 216 38 16 3 37 10 47 15 22 13 32 13 24 1 -3 -6 8
-5 27 1 18 5 103 21 188 35 85 14 162 28 170 31 8 3 25 7 38 8 12 2 37 5 55 9
17 3 46 8 62 10 149 21 133 19 160 28 24 7 67 16 115 22 37 5 72 12 80 16 3 1
16 3 30 4 14 1 39 5 55 8 17 4 63 11 103 17 41 5 82 15 93 21 11 5 24 7 29 4
5 -3 28 -1 52 5 24 6 68 14 98 17 30 3 61 10 68 16 7 6 32 12 55 13 112 9 167
17 167 26 0 6 9 8 20 5 12 -3 18 -1 14 5 -4 7 5 8 25 3 18 -4 31 -3 31 3 0 5
9 12 20 15 11 3 18 1 14 -4 -3 -5 -1 -9 5 -9 5 0 13 5 16 10 4 6 15 8 26 5 10
-4 19 -2 19 4 0 6 10 11 23 11 12 0 37 2 55 5 17 3 44 7 60 8 15 2 54 9 87 16
86 18 182 9 315 -29 36 -10 77 -21 91 -24 l27 -6 -40 123 c-22 67 -80 230
-130 362 -89 236 -150 400 -267 713 -32 86 -93 248 -135 359 -81 214 -83 228
-36 253 19 10 118 33 450 105 208 45 313 68 685 150 165 36 350 77 410 90 61
13 225 49 365 80 314 69 417 92 685 150 359 78 521 114 780 171 138 30 300 66
360 79 201 44 618 135 797 175 208 47 240 49 271 18 13 -13 45 -81 72 -153 26
-71 77 -206 112 -300 35 -93 79 -210 98 -260 64 -167 237 -629 285 -760 76
-206 97 -248 117 -240 73 30 247 75 253 66 4 -7 106 -51 116 -51 6 0 -67 217
-108 325 -27 72 -71 189 -98 260 -49 133 -156 418 -184 490 -90 232 -266 709
-266 719 0 19 35 31 173 60 64 14 170 37 235 51 64 14 155 34 202 45 47 11
159 36 250 55 91 20 215 47 275 60 61 13 205 45 320 70 116 25 323 71 460 101
138 30 300 66 360 79 61 13 223 49 360 79 138 30 345 76 460 101 116 25 260
57 320 70 61 13 164 35 230 50 66 14 158 34 205 45 47 11 159 36 250 55 91 20
246 54 345 76 328 73 320 71 358 56 38 -17 32 -1 238 -552 62 -165 137 -365
167 -445 29 -80 70 -188 89 -240 19 -52 36 -97 39 -99 2 -2 4 394 4 881 l0
885 -103 -20 c-143 -28 -170 -19 -203 70 -32 88 -144 387 -194 518 -27 72 -77
204 -111 295 -34 91 -88 233 -119 315 -31 83 -69 185 -84 228 l-28 77 -189 0
c-104 0 -189 -3 -189 -7 0 -5 15 -48 34 -98 63 -171 257 -690 296 -790 21 -55
73 -192 114 -305 42 -113 91 -240 107 -282 51 -127 41 -138 -166 -182 -115
-24 -423 -91 -810 -176 -302 -66 -866 -189 -1125 -246 -63 -14 -164 -36 -225
-49 -60 -13 -204 -45 -320 -70 -115 -25 -302 -66 -415 -91 -252 -55 -396 -87
-542 -119 -62 -13 -246 -53 -408 -89 -163 -36 -324 -69 -358 -75 -34 -5 -66
-12 -71 -15 -16 -11 -282 -66 -315 -66 -18 0 -43 8 -55 18 -20 16 -73 147
-221 547 -74 200 -390 1039 -465 1235 -78 203 -86 237 -56 264 22 20 65 30
671 161 91 19 203 44 250 55 47 11 200 45 340 75 270 59 419 92 590 130 58 13
173 38 255 56 83 17 236 51 340 75 l190 42 -7707 1 -7708 1 0 -1319z m2225
657 c53 -68 92 -124 86 -126 -17 -6 -70 27 -92 58 l-22 29 -24 -32 c-39 -53
-49 -57 -159 -57 -121 0 -126 4 -122 87 l3 58 103 3 c101 3 103 2 92 -18 -9
-17 -21 -20 -80 -20 l-70 0 0 -30 0 -30 83 0 c82 0 82 0 110 34 15 19 27 38
27 42 0 4 -11 22 -26 41 l-25 33 -110 0 c-60 0 -109 4 -109 9 0 5 7 17 16 25
12 13 38 16 119 16 l104 0 96 -122z m239 106 c26 -26 18 -34 -34 -34 l-50 0 0
-100 c0 -55 -4 -100 -8 -100 -24 0 -32 30 -32 112 l0 88 -50 0 c-47 0 -50 2
-50 25 l0 25 104 0 c82 0 108 -3 120 -16z m230 -5 c33 -26 34 -49 1 -49 -14 0
-25 5 -25 10 0 7 -25 10 -67 8 -53 -2 -68 -6 -68 -18 0 -11 17 -16 74 -21 62
-5 76 -9 92 -30 19 -25 24 -55 13 -84 -10 -26 -60 -45 -119 -45 -46 0 -60 4
-80 25 -14 13 -25 31 -25 40 0 20 34 20 50 0 10 -12 28 -15 69 -13 52 3 56 5
56 28 0 24 -3 25 -73 30 -58 4 -77 9 -88 24 -20 28 -17 66 8 93 30 32 142 34
182 2z m98 -23 l33 -44 40 45 c30 34 46 44 64 42 22 -4 21 -7 -28 -69 -44 -57
-51 -71 -51 -111 0 -29 -6 -51 -15 -59 -22 -18 -26 -10 -30 54 -3 49 -10 64
-49 114 -25 32 -46 61 -46 65 0 4 11 7 25 7 17 0 34 -13 57 -44z m1598 -56 c0
-5 -4 -10 -10 -10 -5 0 -10 5 -10 10 0 6 5 10 10 10 6 0 10 -4 10 -10z m130
-55 c0 -37 -4 -65 -10 -65 -6 0 -10 28 -10 65 0 37 4 65 10 65 6 0 10 -28 10
-65z m40 55 c0 -5 -4 -10 -10 -10 -5 0 -10 5 -10 10 0 6 5 10 10 10 6 0 10 -4
10 -10z m790 -9 c0 -14 8 -21 28 -23 24 -3 27 -7 27 -43 0 -39 -1 -40 -37 -43
l-38 -3 0 65 c0 37 4 66 10 66 6 0 10 -9 10 -19z m-1920 -1 c0 -5 -11 -10 -25
-10 -16 0 -25 -6 -25 -15 0 -8 9 -15 19 -15 11 0 23 -4 26 -10 4 -6 -5 -10
-19 -10 -21 0 -26 -5 -26 -25 0 -14 -4 -25 -10 -25 -6 0 -10 27 -10 60 l0 60
35 0 c19 0 35 -4 35 -10z m750 0 c0 -5 -11 -10 -25 -10 -32 0 -32 -13 1 -34
39 -26 30 -60 -18 -64 -22 -2 -38 1 -38 7 0 6 14 11 30 11 38 0 38 7 -2 40
-28 24 -31 30 -19 44 15 17 71 22 71 6z m739 -8 c12 -23 -4 -52 -29 -52 -15 0
-20 -7 -20 -25 0 -16 -6 -25 -15 -25 -12 0 -15 13 -15 60 l0 60 35 0 c23 0 38
-6 44 -18z m89 -10 c2 -15 -5 -33 -19 -48 -22 -24 -22 -24 -1 -24 11 0 24 -4
27 -10 4 -6 -12 -10 -40 -10 l-46 0 30 37 c38 46 39 63 5 63 -15 0 -23 4 -19
11 4 5 19 9 33 7 20 -2 28 -10 30 -26z m101 10 c12 -23 -4 -52 -29 -52 -15 0
-20 -7 -20 -25 0 -16 -6 -25 -15 -25 -12 0 -15 13 -15 60 l0 60 35 0 c23 0 38
-6 44 -18z m192 -37 c11 -28 19 -53 19 -57 0 -16 -19 -7 -25 12 -3 11 -15 20
-25 20 -10 0 -22 -9 -25 -20 -6 -20 -25 -28 -25 -11 0 5 6 24 14 42 7 19 16
42 20 52 10 29 27 15 47 -38z m441 8 c3 -41 6 -48 26 -51 20 -3 22 0 22 47 0
39 4 51 15 51 18 0 21 -70 5 -101 -12 -22 -59 -26 -78 -7 -14 14 -16 108 -3
108 6 0 11 -21 13 -47z m168 37 c0 -5 -11 -10 -25 -10 -32 0 -32 -13 1 -34 39
-26 30 -60 -18 -64 -22 -2 -38 1 -38 7 0 6 14 11 30 11 36 0 39 16 6 32 -30
13 -40 36 -25 54 13 16 69 19 69 4z m-2254 -15 c9 -8 11 -15 5 -15 -15 0 -14
-67 2 -73 6 -3 2 -6 -10 -6 -22 -1 -26 6 -35 64 -3 17 9 43 20 45 2 0 10 -7
18 -15z m2004 -8 c12 -4 11 -6 -2 -6 -13 -1 -18 -9 -18 -31 0 -17 7 -33 18
-40 15 -9 14 -10 -8 -8 -21 3 -26 9 -31 45 -5 40 8 74 20 54 3 -4 13 -11 21
-14z m-2152 -9 c21 -21 13 -38 -18 -38 -16 0 -30 -4 -30 -10 0 -5 14 -10 31
-10 17 0 28 -4 24 -10 -9 -14 -48 -13 -63 2 -26 26 -7 78 28 78 9 0 21 -5 28
-12z m92 -33 c0 -45 0 -45 -36 -45 -31 0 -35 3 -32 23 2 14 11 23 26 25 13 2
21 9 19 15 -2 7 -11 11 -21 9 -9 -2 -16 2 -16 8 0 5 14 10 30 10 29 0 30 -2
30 -45z m100 12 c0 -19 3 -37 7 -40 12 -13 33 15 33 44 0 16 5 29 10 29 6 0
10 -21 10 -46 l0 -45 -37 3 c-37 3 -38 4 -41 46 -2 25 1 42 7 42 6 0 11 -15
11 -33z m130 23 c0 -5 -7 -10 -15 -10 -10 0 -15 -11 -15 -35 0 -19 -4 -35 -10
-35 -5 0 -10 20 -10 45 0 41 2 45 25 45 14 0 25 -4 25 -10z m84 -6 c11 -28 7
-34 -24 -34 -16 0 -30 -4 -30 -10 0 -5 14 -10 31 -10 17 0 28 -4 24 -10 -9
-14 -48 -13 -63 2 -28 28 -7 78 34 78 12 0 25 -7 28 -16z m76 5 c0 -6 -9 -8
-20 -4 -11 4 -20 2 -20 -4 0 -6 4 -11 9 -11 17 0 40 -30 35 -45 -7 -17 -64
-21 -64 -4 0 6 8 8 19 4 30 -9 36 14 7 25 -25 9 -34 29 -19 43 10 11 53 8 53
-4z m281 -10 c16 -30 -3 -69 -34 -69 -29 0 -47 17 -47 45 0 45 60 63 81 24z
m89 11 c0 -5 -11 -10 -25 -10 -20 0 -25 -5 -25 -25 0 -20 5 -25 25 -25 14 0
25 -4 25 -10 0 -14 -43 -13 -58 2 -29 29 -7 78 35 78 13 0 23 -4 23 -10z m30
-35 c0 -25 -4 -45 -10 -45 -5 0 -10 20 -10 45 0 25 5 45 10 45 6 0 10 -20 10
-45z m88 -2 c3 -43 3 -43 -31 -43 -37 0 -54 19 -34 39 6 6 19 11 30 11 11 0
17 5 14 13 -2 6 -11 11 -21 9 -9 -2 -16 2 -16 8 0 6 12 10 28 8 24 -3 27 -7
30 -45z m82 2 c0 -25 -4 -45 -10 -45 -5 0 -10 20 -10 45 0 25 5 45 10 45 6 0
10 -20 10 -45z m80 38 c0 -5 -9 -19 -20 -33 -25 -32 -25 -38 3 -43 13 -3 8 -5
-15 -6 -43 -1 -45 4 -18 39 25 32 25 38 -2 43 -14 3 -9 5 15 6 20 0 37 -2 37
-6z m84 -9 c11 -28 7 -34 -24 -34 -16 0 -30 -4 -30 -10 0 -5 14 -10 31 -10 17
0 28 -4 24 -10 -9 -14 -48 -13 -63 2 -28 28 -7 78 34 78 12 0 25 -7 28 -16z
m774 4 c7 -7 12 -21 12 -33 0 -47 -62 -63 -81 -21 -22 47 33 90 69 54z m44
-25 c2 -26 8 -38 18 -38 10 0 16 12 18 38 4 52 22 46 22 -8 0 -44 0 -45 -34
-45 -37 0 -46 12 -46 61 0 42 18 36 22 -8z m-2757 -1403 c13 -20 -6 -50 -31
-50 -26 0 -40 20 -30 45 6 17 51 20 61 5z m415 -170 l0 -180 -35 0 -35 0 0
180 0 180 35 0 35 0 0 -180z m134 165 c9 -25 -5 -45 -30 -45 -14 0 -27 7 -30
15 -10 25 4 45 30 45 13 0 26 -7 30 -15z m361 5 c13 -20 -6 -50 -31 -50 -26 0
-40 20 -30 45 6 17 51 20 61 5z m3215 -170 l0 -180 -25 0 c-16 0 -25 6 -25 16
0 14 -2 14 -22 0 -36 -26 -101 -21 -131 10 -76 76 -31 234 66 234 21 0 47 -5
58 -10 18 -10 19 -7 19 50 l0 60 30 0 30 0 0 -180z m-4805 150 c21 -8 25 -14
19 -33 -3 -12 -7 -23 -8 -23 0 -1 -24 3 -53 9 -41 8 -55 8 -68 -3 -29 -24 -14
-53 45 -82 89 -43 115 -85 88 -143 -16 -36 -57 -55 -120 -55 -82 0 -98 7 -98
42 0 27 3 30 23 24 86 -27 137 -16 137 29 0 18 -13 29 -65 54 -80 38 -107 79
-85 131 7 17 25 37 39 45 30 17 108 19 146 5z m2536 -8 c34 -28 30 -78 -8
-113 l-31 -27 32 -31 c18 -17 35 -31 39 -31 5 0 13 14 18 30 9 24 17 30 40 30
35 0 36 -10 8 -68 l-21 -43 33 -35 33 -34 -39 0 c-21 0 -46 7 -56 16 -16 14
-20 14 -48 0 -38 -20 -113 -21 -150 -1 -57 29 -61 123 -6 159 l23 15 -18 37
c-21 40 -14 76 18 100 26 20 106 17 133 -4z m515 -15 c45 -52 24 -145 -37
-166 -18 -6 -49 -11 -70 -11 l-39 0 0 -65 0 -65 -30 0 -30 0 0 171 0 171 91
-4 c85 -3 92 -5 115 -31z m257 13 c60 -47 41 -119 -55 -210 l-63 -60 83 0 c81
0 82 0 82 -25 l0 -25 -120 0 c-117 0 -120 1 -120 22 0 14 29 52 80 104 63 64
80 88 80 111 0 16 -5 34 -12 41 -16 16 -60 15 -84 -3 -26 -20 -37 -19 -52 5
-31 50 125 84 181 40z m308 -6 c13 -13 23 -39 26 -66 5 -40 2 -49 -24 -78 -25
-28 -38 -34 -86 -38 l-57 -4 0 -64 0 -64 -35 0 -35 0 0 171 0 171 95 -4 c80
-2 98 -6 116 -24z m439 1 c0 -23 -3 -25 -50 -25 l-50 0 0 -145 0 -145 -30 0
-30 0 0 145 0 145 -50 0 c-47 0 -50 2 -50 25 l0 25 130 0 130 0 0 -25z m-3791
-70 c78 -40 79 -189 2 -229 -16 -9 -51 -16 -77 -16 -39 0 -51 5 -80 34 -31 31
-34 39 -34 96 0 57 3 65 34 96 29 29 41 34 80 34 26 0 60 -7 75 -15z m290 6
c8 -5 11 -16 6 -30 -6 -18 -12 -21 -40 -15 -49 9 -72 -2 -85 -41 -13 -41 1
-99 26 -109 24 -9 63 -7 85 4 17 9 19 7 19 -19 0 -34 -13 -41 -81 -41 -39 0
-55 5 -81 29 -27 24 -32 36 -35 87 -5 66 18 117 60 134 28 11 108 12 126 1z
m121 -121 l0 -130 -30 0 -30 0 0 130 0 130 30 0 30 0 0 -130z m243 119 c34
-19 37 -27 37 -141 0 -102 -1 -108 -20 -108 -11 0 -23 7 -26 15 -5 13 -8 13
-27 0 -32 -22 -103 -19 -127 5 -21 21 -26 69 -10 100 12 22 61 40 112 40 35 0
39 2 36 23 -3 20 -8 22 -62 22 -64 0 -84 17 -50 42 22 16 107 17 137 2z m307
-119 l0 -130 -30 0 -30 0 0 130 0 130 30 0 30 0 0 -130z m250 112 c0 -10 -27
-57 -60 -103 l-60 -84 60 -3 c56 -3 60 -4 60 -27 0 -25 -1 -25 -100 -25 -93 0
-100 1 -100 20 0 11 27 57 59 102 l60 83 -57 5 c-50 4 -57 8 -60 28 -3 22 -1
22 97 22 91 0 101 -2 101 -18z m110 -112 l0 -130 -30 0 -30 0 0 130 0 130 30
0 30 0 0 -130z m130 114 c0 -14 2 -14 22 0 36 25 104 21 133 -9 23 -23 25 -31
25 -130 l0 -105 -30 0 -30 0 0 86 c0 98 -10 124 -47 124 -51 0 -63 -24 -63
-122 l0 -88 -35 0 -35 0 0 130 0 130 30 0 c20 0 30 -5 30 -16z m480 -4 c0 -13
-7 -20 -19 -20 -17 0 -20 -6 -18 -41 2 -54 -35 -89 -93 -89 -41 0 -62 -16 -39
-31 8 -5 37 -9 64 -9 72 0 97 -20 93 -73 -2 -34 -9 -45 -37 -64 -64 -43 -200
-25 -214 28 -7 26 7 64 26 72 10 4 13 14 10 31 -3 14 0 33 7 41 10 13 9 19 -6
36 -28 31 -24 87 10 115 24 22 37 24 122 24 87 0 94 -1 94 -20z m1954 4 c5
-14 8 -14 28 0 23 16 88 22 88 9 -1 -34 -15 -53 -39 -53 -53 0 -71 -33 -71
-129 l0 -71 -30 0 -30 0 0 130 0 130 24 0 c13 0 27 -7 30 -16z m337 -3 c22
-18 24 -28 27 -130 l4 -111 -25 0 c-14 0 -28 7 -31 16 -5 14 -8 14 -28 0 -12
-9 -41 -16 -64 -16 -75 0 -108 71 -61 126 20 23 34 28 85 32 66 5 70 8 48 37
-11 15 -22 17 -64 12 -40 -5 -52 -3 -56 9 -9 23 -8 24 17 34 41 16 123 12 148
-9z m563 8 c28 -13 56 -64 56 -103 0 -26 0 -26 -85 -26 -76 0 -85 -2 -85 -18
0 -37 35 -55 95 -49 53 5 55 5 55 -18 0 -12 -7 -26 -16 -29 -30 -12 -115 -6
-145 10 -73 37 -77 179 -8 228 27 19 97 21 133 5z m-4770 -484 c9 -25 -5 -45
-30 -45 -14 0 -27 7 -30 15 -10 25 4 45 30 45 13 0 26 -7 30 -15z m316 -51 l0
-65 22 15 c25 18 90 21 118 6 28 -15 40 -64 40 -161 l0 -89 -35 0 -35 0 0 89
c0 112 -3 121 -45 121 -48 0 -58 -20 -63 -121 l-4 -89 -29 0 -29 0 0 180 0
180 30 0 30 0 0 -66z m1714 57 c13 -20 -7 -41 -39 -41 -30 0 -45 -13 -45 -41
0 -5 16 -9 36 -9 31 0 35 -3 32 -22 -2 -18 -11 -24 -35 -26 l-33 -3 0 -105 0
-104 -30 0 -30 0 0 104 c0 95 -2 104 -20 109 -11 3 -20 12 -20 20 0 9 9 19 20
22 12 4 20 15 20 29 0 13 9 35 21 50 17 22 28 26 69 26 27 0 51 -4 54 -9z
m290 -6 c9 -25 -5 -45 -30 -45 -14 0 -27 7 -30 15 -10 25 4 45 30 45 13 0 26
-7 30 -15z m876 -165 l0 -180 -24 0 c-13 0 -26 5 -28 11 -3 9 -9 9 -25 0 -31
-16 -90 -14 -118 5 -40 26 -58 117 -36 177 23 59 96 86 152 57 18 -10 19 -7
19 50 l0 60 30 0 30 0 0 -180z m496 123 c-3 -21 -6 -71 -6 -110 0 -70 -1 -73
-24 -73 -30 0 -36 20 -36 133 l0 87 36 0 37 0 -7 -37z m-3556 -13 c0 -28 3
-30 35 -30 31 0 35 -3 35 -25 0 -22 -4 -25 -35 -25 l-36 0 3 -77 3 -78 38 -3
c33 -3 38 -6 35 -25 -3 -19 -10 -22 -50 -25 -73 -5 -88 16 -88 122 0 75 -2 84
-20 89 -25 7 -26 34 -1 42 11 3 24 19 30 35 14 42 51 42 51 0z m-545 -107 c10
-43 21 -81 24 -85 4 -4 17 31 30 78 l24 85 35 -3 c36 -3 36 -3 56 -80 11 -43
23 -78 26 -78 3 0 15 35 26 78 20 75 21 77 53 80 25 3 32 0 29 -10 -3 -7 -20
-66 -38 -131 l-33 -118 -35 3 -36 3 -25 93 -25 94 -25 -94 -26 -93 -36 -3
c-35 -3 -37 -2 -47 40 -7 24 -22 82 -36 131 l-24 87 32 0 c32 0 32 -1 51 -77z
m405 -53 l0 -130 -30 0 -30 0 0 130 0 130 30 0 30 0 0 -130z m736 83 c10 -27
25 -67 34 -91 l16 -43 31 88 c29 84 32 88 62 91 17 2 31 -1 31 -7 0 -5 -27
-80 -61 -165 -67 -172 -85 -196 -150 -196 -35 0 -39 3 -39 25 0 21 5 25 29 25
32 0 61 30 61 62 0 9 -22 71 -49 138 l-50 120 34 0 c31 0 35 -4 51 -47z m393
32 c29 -14 61 -76 61 -115 0 -39 -32 -101 -61 -115 -107 -56 -221 37 -189 153
12 45 18 53 50 75 30 21 101 22 139 2z m171 -71 c0 -98 10 -124 47 -124 51 0
63 24 63 122 l0 88 30 0 30 0 0 -130 0 -130 -25 0 c-16 0 -25 6 -25 16 0 14
-2 14 -22 0 -36 -25 -104 -21 -133 9 -23 23 -25 31 -25 130 l0 105 30 0 30 0
0 -86z m300 64 l0 -21 23 21 c14 13 36 22 55 22 29 0 32 -3 32 -30 0 -27 -3
-30 -32 -30 -55 0 -68 -22 -68 -117 l0 -83 -30 0 -30 0 0 130 0 130 25 0 c19
0 25 -5 25 -22z m504 6 c5 -14 8 -14 28 0 23 16 88 22 88 9 -1 -34 -15 -53
-39 -53 -54 0 -66 -20 -70 -114 l-3 -86 -29 0 -29 0 0 130 0 130 24 0 c13 0
27 -7 30 -16z m216 -114 l0 -130 -30 0 -30 0 0 130 0 130 30 0 30 0 0 -130z
m261 101 c23 -23 29 -39 29 -70 l0 -41 -85 0 c-92 0 -99 -5 -69 -49 16 -22 22
-23 80 -18 61 4 64 4 64 -18 0 -27 -22 -35 -98 -35 -48 0 -58 4 -88 34 -31 31
-34 39 -34 96 0 57 3 65 34 96 30 30 40 34 86 34 44 0 56 -4 81 -29z m139 13
c0 -15 2 -15 25 0 30 20 103 20 128 1 25 -18 36 -73 37 -167 l0 -78 -35 0 -35
0 0 94 c0 103 -8 120 -57 114 -39 -4 -53 -39 -53 -130 l0 -78 -30 0 -30 0 0
130 0 130 25 0 c16 0 25 -6 25 -16z m726 4 c3 -4 3 -15 0 -26 -6 -16 -15 -19
-63 -18 -78 1 -79 -17 0 -52 47 -22 66 -36 70 -54 16 -61 -26 -98 -112 -98
-64 0 -81 7 -81 35 0 22 2 22 65 17 61 -4 65 -3 65 16 0 15 -13 27 -47 42 -62
27 -83 47 -83 79 0 53 34 73 117 68 34 -1 65 -6 69 -9z m249 -213 c0 -25 -4
-31 -26 -33 -32 -4 -53 20 -44 48 5 17 13 20 38 18 28 -3 32 -7 32 -33z
m-3765 -520 c0 -78 -3 -95 -15 -95 -12 0 -15 17 -15 95 0 78 3 95 15 95 12 0
15 -17 15 -95z m2060 0 c0 -78 -3 -95 -15 -95 -12 0 -15 17 -15 95 0 78 3 95
15 95 12 0 15 -17 15 -95z m1260 0 c0 -78 -3 -95 -15 -95 -12 0 -15 17 -15 95
0 78 3 95 15 95 12 0 15 -17 15 -95z m340 85 c0 -5 -9 -10 -20 -10 -13 0 -20
-7 -20 -20 0 -11 7 -20 15 -20 8 0 15 -4 15 -10 0 -5 -7 -10 -15 -10 -12 0
-15 -13 -15 -55 0 -42 -3 -55 -15 -55 -12 0 -15 13 -15 55 l0 55 -35 0 c-34 0
-35 -1 -35 -41 0 -32 4 -42 20 -46 27 -7 25 -23 -3 -23 -34 0 -47 19 -47 66 0
24 -5 44 -12 46 -8 3 -4 12 10 26 26 26 32 27 32 8 0 -15 42 -27 58 -17 5 3
12 18 16 34 5 22 12 27 36 27 17 0 30 -4 30 -10z m780 -20 c0 -28 3 -30 35
-30 42 0 55 -20 55 -84 0 -34 -4 -46 -14 -46 -11 0 -16 15 -18 53 -3 48 -5 52
-28 52 -23 0 -25 -4 -28 -52 -2 -38 -7 -53 -18 -53 -11 0 -14 19 -14 95 0 78
3 95 15 95 10 0 15 -10 15 -30z m-4820 -22 c21 -84 25 -85 43 -19 22 80 41 81
63 1 10 -32 20 -57 24 -55 4 2 12 29 19 60 8 36 18 55 27 55 15 0 15 -1 -15
-115 -23 -85 -43 -84 -67 2 l-18 68 -20 -68 c-27 -91 -42 -86 -72 23 -13 47
-24 86 -24 88 0 1 7 2 15 2 8 0 18 -17 25 -42z m2748 24 c2 -7 -3 -12 -12 -12
-9 0 -16 7 -16 16 0 17 22 14 28 -4z m-1598 -17 c0 -8 9 -15 20 -15 11 0 20
-4 20 -10 0 -5 -9 -10 -20 -10 -17 0 -20 -7 -20 -45 0 -38 3 -45 20 -45 11 0
20 -5 20 -11 0 -6 -14 -9 -32 -7 -32 3 -33 5 -36 53 -2 27 -8 52 -14 56 -6 4
-3 14 8 28 22 25 34 27 34 6z m1510 0 c0 -8 9 -15 20 -15 11 0 20 -4 20 -10 0
-5 -9 -10 -20 -10 -17 0 -20 -7 -20 -45 0 -38 3 -45 20 -45 11 0 20 -5 20 -11
0 -6 -14 -9 -32 -7 -32 3 -33 5 -36 53 -2 27 -8 52 -14 56 -6 4 -3 14 8 28 22
25 34 27 34 6z m-2350 -34 c21 -40 13 -51 -35 -51 -25 0 -45 -4 -45 -9 0 -19
31 -33 61 -27 22 4 29 2 27 -7 -3 -6 -23 -13 -45 -15 -33 -2 -44 1 -57 20 -20
28 -20 57 0 86 20 29 79 31 94 3z m197 7 c-2 -7 -15 -12 -30 -10 -35 4 -55
-34 -37 -68 9 -18 18 -21 41 -16 22 4 29 2 29 -9 0 -19 -59 -20 -82 -2 -26 19
-27 76 -2 101 19 19 88 22 81 4z m134 -4 c7 -9 13 -31 13 -49 0 -18 -6 -40
-13 -49 -14 -17 -67 -21 -88 -8 -32 20 -32 94 0 114 21 13 74 9 88 -8z m227 4
c18 -15 16 -118 -2 -118 -11 0 -16 15 -18 53 -3 44 -6 52 -23 52 -17 0 -20 -8
-23 -52 -2 -38 -7 -53 -18 -53 -10 0 -14 13 -14 50 0 36 -4 52 -15 56 -26 10
-45 -16 -45 -62 0 -32 -4 -44 -15 -44 -12 0 -15 14 -15 64 l0 64 88 0 c48 0
93 -5 100 -10z m146 -10 c27 -39 20 -48 -34 -48 -49 0 -50 -1 -39 -21 9 -17
17 -20 45 -16 25 4 34 2 34 -9 0 -15 -65 -20 -87 -6 -32 20 -32 94 0 114 24
15 66 8 81 -14z m298 5 c22 -20 23 -70 1 -95 -23 -26 -78 -24 -97 4 -33 47 -7
108 46 108 17 0 40 -7 50 -17z m219 1 c7 -9 13 -31 13 -49 0 -18 -6 -40 -13
-49 -14 -17 -67 -21 -88 -8 -32 20 -32 94 0 114 21 13 74 9 88 -8z m71 -36 c3
-49 5 -53 28 -53 23 0 25 4 28 53 2 37 7 52 18 52 11 0 14 -15 14 -63 l0 -64
-46 -2 c-26 0 -53 4 -60 10 -20 16 -19 119 0 119 11 0 16 -15 18 -52z m208 44
c0 -4 -10 -12 -22 -17 -19 -8 -24 -19 -26 -57 -2 -34 -7 -48 -18 -48 -11 0
-14 15 -14 63 l0 63 40 1 c22 1 40 -1 40 -5z m170 -2 c0 -6 -6 -10 -14 -10
-26 0 -46 -30 -46 -71 0 -21 -4 -39 -10 -39 -6 0 -10 28 -10 63 l0 64 40 1
c22 1 40 -3 40 -8z m114 -6 c9 -8 16 -24 16 -35 0 -16 -7 -19 -45 -19 -33 0
-45 -4 -45 -15 0 -16 42 -30 65 -21 9 3 15 0 15 -9 0 -21 -68 -20 -92 2 -22
20 -23 70 -1 95 20 22 66 24 87 2z m66 -21 c18 -57 26 -59 42 -11 8 24 22 44
31 46 18 4 18 6 -30 -115 -10 -26 -34 -12 -52 30 -31 72 -34 87 -17 87 8 0 20
-16 26 -37z m211 21 c7 -9 13 -31 13 -49 0 -18 -6 -40 -13 -49 -14 -17 -67
-21 -88 -8 -32 20 -32 94 0 114 21 13 74 9 88 -8z m131 -36 c2 -43 7 -54 22
-56 27 -6 46 24 46 70 0 21 5 38 10 38 6 0 10 -28 10 -63 l0 -64 -50 -2 c-46
-1 -51 1 -60 24 -16 41 -13 105 4 105 11 0 16 -15 18 -52z m248 -13 c0 -51 -3
-65 -15 -65 -12 0 -15 14 -15 65 0 51 3 65 15 65 12 0 15 -14 15 -65z m134 49
c9 -8 16 -31 16 -49 0 -18 -7 -41 -16 -49 -19 -20 -64 -21 -89 -2 -22 16 -26
76 -6 100 17 21 75 21 95 0z m153 4 c19 -15 18 -118 -1 -118 -11 0 -16 15 -18
52 -2 42 -7 54 -22 56 -25 5 -36 -14 -36 -65 0 -32 -4 -43 -15 -43 -12 0 -15
14 -15 64 l0 63 47 1 c26 1 53 -4 60 -10z m141 0 c7 -7 12 -35 12 -64 l0 -52
-52 2 c-47 1 -53 4 -56 24 -5 32 15 52 49 52 20 0 29 5 29 16 0 11 -8 15 -27
14 -39 -3 -45 -1 -38 10 9 14 68 13 83 -2z m162 3 c0 -5 7 -26 16 -47 l16 -39
18 45 c10 25 25 46 33 48 12 3 8 -15 -18 -82 -18 -47 -36 -90 -40 -96 -8 -13
-55 -13 -55 0 0 6 7 10 15 10 31 0 35 35 12 94 -17 43 -27 56 -42 56 -32 0
-45 -20 -45 -67 0 -32 -4 -43 -15 -43 -12 0 -15 14 -15 64 l0 63 60 2 c33 0
60 -3 60 -8z m290 -10 c15 -29 12 -77 -7 -96 -11 -11 -28 -15 -50 -13 -32 4
-33 3 -33 -29 0 -18 -4 -33 -10 -33 -6 0 -10 38 -10 93 l0 94 50 2 c40 1 51
-2 60 -18z m198 7 c7 -7 12 -35 12 -64 l0 -51 -47 -1 c-48 -1 -73 10 -73 34 0
22 30 44 62 44 19 0 28 4 25 13 -2 6 -18 11 -36 11 -30 -2 -39 5 -24 19 11 12
68 8 81 -5z m323 -4 c7 -9 13 -31 13 -49 0 -18 -6 -40 -13 -49 -14 -17 -67
-21 -88 -8 -32 20 -32 94 0 114 21 13 74 9 88 -8z m129 6 c0 -6 -6 -10 -14
-10 -26 0 -46 -30 -46 -71 0 -21 -4 -39 -10 -39 -6 0 -10 28 -10 63 l0 64 40
1 c22 1 40 -3 40 -8z m208 -57 c2 -39 -1 -63 -8 -63 -5 0 -10 19 -10 43 0 51
-11 70 -36 65 -15 -2 -20 -14 -22 -56 -2 -37 -7 -52 -18 -52 -10 0 -14 13 -14
50 0 38 -4 52 -16 57 -24 9 -44 -23 -44 -69 0 -21 -4 -38 -10 -38 -6 0 -10 28
-10 64 l0 63 93 -1 92 -1 3 -62z m128 21 c8 -25 14 -34 18 -24 3 8 10 27 15
43 16 42 38 34 54 -20 l14 -47 11 47 c8 31 18 47 28 47 10 0 13 -6 9 -19 -3
-10 -11 -38 -18 -62 -17 -60 -41 -62 -60 -7 -9 28 -17 38 -21 28 -3 -8 -10
-27 -15 -42 -17 -44 -38 -34 -55 26 -19 65 -20 79 -4 74 7 -3 18 -22 24 -44z
m422 34 c7 -7 12 -22 12 -35 0 -21 -5 -23 -45 -23 -43 0 -45 -1 -34 -21 9 -17
17 -20 46 -16 24 4 33 2 30 -6 -6 -20 -81 -21 -97 -2 -18 21 -18 78 -1 99 16
19 72 21 89 4z m129 5 c-4 -3 -17 -11 -29 -17 -18 -9 -24 -21 -26 -59 -2 -33
-7 -47 -18 -47 -11 0 -14 15 -14 64 l0 63 46 1 c26 1 44 -1 41 -5z m117 -15
c27 -39 20 -48 -34 -48 -49 0 -50 -1 -39 -21 9 -17 17 -20 45 -16 25 4 34 2
34 -9 0 -15 -65 -20 -87 -6 -24 15 -32 56 -17 90 11 27 18 32 48 32 25 0 39
-6 50 -22z m-4664 -393 c0 -78 -3 -95 -15 -95 -12 0 -15 17 -15 95 0 78 3 95
15 95 12 0 15 -17 15 -95z m1040 1 l0 -93 -49 -1 c-57 -2 -75 13 -75 63 0 47
20 68 61 63 31 -4 33 -2 33 29 0 23 5 33 15 33 12 0 15 -17 15 -94z m2080 1
l0 -94 -44 -1 c-54 -2 -76 16 -76 63 0 45 24 68 67 63 32 -4 33 -3 33 29 0 18
5 33 10 33 6 0 10 -38 10 -93z m-3660 69 c0 -9 -12 -13 -37 -12 -48 1 -59 -28
-16 -46 61 -26 79 -60 47 -92 -20 -21 -104 -22 -104 -2 0 11 9 13 33 10 63 -9
77 36 17 58 -47 16 -63 54 -34 82 20 20 94 22 94 2z m335 5 c7 -12 -12 -24
-25 -16 -11 7 -4 25 10 25 5 0 11 -4 15 -9z m265 -6 c0 -8 -7 -15 -15 -15 -8
0 -15 7 -15 15 0 8 7 15 15 15 8 0 15 -7 15 -15z m180 0 c0 -8 -7 -15 -15 -15
-8 0 -15 7 -15 15 0 8 7 15 15 15 8 0 15 -7 15 -15z m4220 -46 c0 -81 -24 -77
-28 4 -2 46 0 57 13 57 12 0 15 -13 15 -61z m-2680 26 c0 -8 9 -15 20 -15 11
0 20 -4 20 -10 0 -5 -9 -10 -20 -10 -17 0 -20 -7 -20 -41 0 -32 4 -42 20 -46
11 -3 20 -9 20 -14 0 -14 -48 -11 -57 3 -14 24 -20 112 -9 130 13 22 26 23 26
3z m930 0 c0 -8 9 -15 20 -15 11 0 20 -4 20 -10 0 -5 -9 -10 -20 -10 -17 0
-20 -7 -20 -45 0 -38 3 -45 20 -45 11 0 20 -5 20 -11 0 -6 -14 -9 -32 -7 -32
3 -33 5 -36 53 -2 27 -9 53 -15 58 -9 7 -9 10 1 14 6 2 12 11 12 19 0 8 7 14
15 14 8 0 15 -7 15 -15z m-3106 -37 c33 -47 7 -108 -46 -108 -17 0 -40 7 -50
17 -22 20 -23 70 -1 95 23 26 78 24 97 -4z m136 8 c0 -9 -7 -12 -20 -9 -28 7
-50 -14 -50 -48 0 -22 6 -30 24 -35 14 -3 30 -3 35 1 6 3 11 -1 11 -9 0 -22
-58 -21 -82 1 -22 20 -23 70 -1 95 20 22 83 25 83 4z m50 -51 c0 -37 -4 -65
-10 -65 -6 0 -10 28 -10 65 0 37 4 65 10 65 6 0 10 -28 10 -65z m138 -1 l3
-62 -53 2 c-47 1 -53 4 -56 24 -5 32 15 52 49 52 20 0 29 5 29 16 0 11 -8 15
-27 14 -40 -3 -45 -1 -38 11 4 5 26 9 48 7 l42 -3 3 -61z m132 1 c0 -51 -3
-65 -15 -65 -12 0 -15 14 -15 65 0 51 3 65 15 65 12 0 15 -14 15 -65z m120 54
c0 -6 -14 -30 -30 -55 l-31 -44 36 0 c19 0 35 -4 35 -10 0 -5 -25 -10 -55 -10
-30 0 -55 3 -55 6 0 4 16 28 36 55 l36 49 -31 0 c-17 0 -31 5 -31 10 0 6 20
10 45 10 25 0 45 -5 45 -11z m60 -54 c0 -51 -3 -65 -15 -65 -12 0 -15 14 -15
65 0 51 3 65 15 65 12 0 15 -14 15 -65z m137 53 c19 -16 18 -118 -2 -118 -12
0 -15 13 -15 55 0 46 -3 55 -18 55 -29 0 -42 -21 -42 -67 0 -32 -4 -43 -15
-43 -12 0 -15 14 -15 64 l0 63 47 1 c26 1 53 -4 60 -10z m163 2 c0 -5 -4 -10
-9 -10 -5 0 -7 -8 -4 -18 5 -22 -13 -39 -47 -44 -37 -5 -26 -22 17 -28 30 -4
39 -10 41 -28 5 -35 -15 -52 -63 -52 -52 0 -73 20 -57 53 16 34 21 66 11 73
-13 8 -11 38 3 52 14 14 108 16 108 2z m188 -56 l3 -62 -53 2 c-47 1 -53 4
-56 24 -5 32 15 52 49 52 20 0 29 5 29 16 0 11 -8 15 -27 14 -40 -3 -45 -1
-38 11 4 5 26 9 48 7 l42 -3 3 -61z m152 41 c16 -41 13 -105 -4 -105 -11 0
-16 15 -18 52 -2 43 -7 54 -22 56 -27 6 -46 -24 -46 -70 0 -21 -4 -38 -10 -38
-6 0 -10 28 -10 63 l0 64 50 2 c46 1 51 -1 60 -24z m366 14 c16 -13 18 -72 4
-100 -8 -13 -21 -19 -45 -19 -32 0 -35 -2 -35 -30 0 -20 -5 -30 -15 -30 -12 0
-15 17 -15 93 l0 94 46 2 c26 0 53 -4 60 -10z m142 -1 c7 -7 12 -22 12 -35 0
-21 -5 -23 -45 -23 -25 0 -45 -4 -45 -9 0 -19 31 -33 61 -27 22 4 29 2 27 -7
-6 -18 -70 -20 -92 -4 -23 17 -27 77 -7 101 16 19 72 21 89 4z m140 0 c7 -7
12 -22 12 -35 0 -21 -5 -23 -45 -23 -25 0 -45 -4 -45 -9 0 -19 31 -33 61 -27
22 4 29 2 27 -7 -6 -18 -70 -20 -92 -4 -23 17 -27 77 -7 101 16 19 72 21 89 4z
m129 5 c-4 -3 -17 -11 -29 -17 -18 -9 -24 -21 -26 -59 -2 -33 -7 -47 -18 -47
-11 0 -14 15 -14 64 l0 63 46 1 c26 1 44 -1 41 -5z m294 -9 c7 -9 13 -31 13
-49 0 -18 -6 -40 -13 -49 -14 -17 -67 -21 -88 -8 -32 20 -32 94 0 114 21 13
74 9 88 -8z m234 -6 c19 -29 19 -58 -1 -87 -13 -18 -24 -22 -50 -19 -33 4 -34
3 -34 -29 0 -23 -5 -33 -15 -33 -12 0 -15 17 -15 94 l0 93 50 2 c40 0 52 -3
65 -21z m145 3 c21 -40 13 -51 -35 -51 -25 0 -45 -4 -45 -9 0 -19 31 -33 61
-27 22 4 29 2 27 -7 -3 -6 -23 -13 -45 -15 -33 -2 -44 1 -57 20 -20 28 -20 57
0 86 20 29 79 31 94 3z m140 0 c21 -40 13 -51 -35 -51 -25 0 -45 -4 -45 -9 0
-19 31 -33 61 -27 22 4 29 2 27 -7 -3 -6 -23 -13 -45 -15 -33 -2 -44 1 -57 20
-20 28 -20 57 0 86 20 29 79 31 94 3z m120 11 c0 -4 -10 -12 -22 -17 -19 -8
-24 -19 -26 -57 -2 -34 -7 -48 -18 -48 -11 0 -14 15 -14 63 l0 63 40 1 c22 1
40 -1 40 -5z m260 -2 c0 -6 -8 -10 -18 -10 -29 0 -42 -21 -42 -67 0 -32 -4
-43 -15 -43 -12 0 -15 14 -15 64 l0 63 45 1 c25 1 45 -3 45 -8z m108 -2 c7 -7
12 -35 12 -64 l0 -52 -52 2 c-47 1 -53 4 -56 24 -5 32 15 52 49 52 20 0 29 5
29 16 0 11 -8 15 -27 14 -39 -3 -45 -1 -38 10 9 14 68 13 83 -2z m302 -7 c21
-40 13 -51 -35 -51 -25 0 -45 -4 -45 -9 0 -19 31 -33 61 -27 22 4 29 2 27 -7
-3 -6 -23 -13 -45 -15 -33 -2 -44 1 -57 20 -20 28 -20 57 0 86 20 29 79 31 94
3z m197 7 c-2 -7 -15 -12 -30 -10 -35 4 -55 -34 -37 -68 9 -18 18 -21 41 -16
22 4 29 2 29 -9 0 -10 -11 -15 -33 -15 -49 0 -69 19 -69 65 0 26 6 43 18 52
23 17 87 18 81 1z m134 -4 c7 -9 13 -31 13 -49 0 -18 -6 -40 -13 -49 -17 -21
-75 -21 -95 0 -25 25 -24 82 2 102 22 17 77 15 93 -4z m146 4 c19 -16 18 -118
-2 -118 -12 0 -15 13 -15 55 0 46 -3 55 -18 55 -29 0 -42 -21 -42 -67 0 -32
-4 -43 -15 -43 -12 0 -15 14 -15 64 l0 63 47 1 c26 1 53 -4 60 -10z m74 -25
c18 -58 21 -59 39 -12 10 24 25 45 34 47 17 4 17 4 -31 -115 -12 -30 -39 -12
-57 40 -10 28 -21 58 -23 65 -3 6 2 12 10 12 9 0 21 -16 28 -37z m203 15 c27
-39 20 -48 -34 -48 -49 0 -50 -1 -39 -21 9 -17 17 -20 45 -16 25 4 34 2 34 -9
0 -15 -65 -20 -87 -6 -32 20 -32 94 0 114 24 15 66 8 81 -14z m126 12 c0 -6
-8 -10 -18 -10 -29 0 -42 -21 -42 -67 0 -32 -4 -43 -15 -43 -12 0 -15 14 -15
64 l0 63 45 1 c25 1 45 -3 45 -8z m130 0 c0 -5 -4 -10 -9 -10 -5 0 -7 -8 -4
-18 5 -22 -13 -39 -47 -44 -37 -5 -26 -22 17 -28 32 -4 38 -9 41 -32 4 -33
-24 -50 -75 -46 -44 4 -62 27 -46 60 19 39 23 57 13 63 -14 9 -12 39 2 53 14
14 108 16 108 2z m118 -2 c7 -7 12 -22 12 -35 0 -21 -5 -23 -45 -23 -43 0 -45
-1 -34 -21 9 -17 17 -20 46 -16 24 4 33 2 30 -6 -5 -18 -69 -20 -91 -4 -23 17
-27 77 -7 101 16 19 72 21 89 4z m-2658 -48 c0 -5 -16 -10 -35 -10 -19 0 -35
5 -35 10 0 6 16 10 35 10 19 0 35 -4 35 -10z m320 0 c0 -5 -16 -10 -35 -10
-19 0 -35 5 -35 10 0 6 16 10 35 10 19 0 35 -4 35 -10z m2410 -56 c0 -8 -7
-14 -15 -14 -15 0 -21 21 -9 33 10 9 24 -2 24 -19z m-3595 -423 c153 -71 153
-291 0 -362 -38 -17 -80 -19 -703 -19 -716 0 -702 -1 -761 53 -56 52 -76 151
-46 225 21 49 52 81 100 103 38 17 80 19 705 19 625 0 667 -2 705 -19z m-735
-1006 c52 -27 60 -57 60 -225 0 -168 -8 -198 -60 -225 -60 -31 -137 -10 -165
45 -22 42 -22 318 0 360 29 55 105 76 165 45z"/>
<path d="M5363 8613 c-18 -6 -16 -50 1 -56 18 -7 26 1 26 29 0 25 -9 34 -27
27z"/>
<path d="M4870 8625 c0 -8 7 -15 15 -15 8 0 15 7 15 15 0 8 -7 15 -15 15 -8 0
-15 -7 -15 -15z"/>
<path d="M5060 8625 c0 -8 7 -15 15 -15 8 0 15 7 15 15 0 8 -7 15 -15 15 -8 0
-15 -7 -15 -15z"/>
<path d="M5260 8610 c0 -5 5 -10 10 -10 6 0 10 5 10 10 0 6 -4 10 -10 10 -5 0
-10 -4 -10 -10z"/>
<path d="M3467 8614 c-13 -13 -7 -24 14 -24 11 0 19 5 17 12 -5 14 -22 21 -31
12z"/>
<path d="M3555 8569 c-4 -6 -5 -13 -2 -16 7 -7 27 6 27 18 0 12 -17 12 -25 -2z"/>
<path d="M3867 8614 c-13 -13 -7 -24 14 -24 11 0 19 5 17 12 -5 14 -22 21 -31
12z"/>
<path d="M4220 8605 c-9 -11 -11 -22 -4 -32 14 -23 29 -20 32 6 5 32 -11 46
-28 26z"/>
<path d="M4435 8569 c-4 -6 -5 -13 -2 -16 7 -7 27 6 27 18 0 12 -17 12 -25 -2z"/>
<path d="M4677 8614 c-13 -13 -7 -24 14 -24 11 0 19 5 17 12 -5 14 -22 21 -31
12z"/>
<path d="M5452 8603 c-15 -26 4 -59 24 -42 18 15 18 33 0 48 -12 10 -17 9 -24
-6z"/>
<path d="M6762 7042 c-22 -15 -32 -70 -19 -110 10 -32 17 -37 47 -40 24 -3 38
2 47 14 18 25 17 109 -3 128 -17 17 -51 21 -72 8z"/>
<path d="M4540 7106 c0 -13 7 -30 16 -37 14 -11 19 -10 35 9 24 30 14 52 -22
52 -24 0 -29 -4 -29 -24z"/>
<path d="M4526 6974 c-49 -48 21 -108 86 -73 19 10 19 12 -18 50 -43 44 -46
45 -68 23z"/>
<path d="M5010 7075 l0 -55 33 0 c38 0 62 16 72 47 9 32 -26 63 -70 63 l-35 0
0 -55z"/>
<path d="M5580 7075 c0 -55 0 -55 31 -55 49 0 69 16 69 55 0 39 -20 55 -69 55
-31 0 -31 0 -31 -55z"/>
<path d="M2256 7028 c-37 -52 -9 -138 44 -138 42 0 60 24 60 80 0 31 -6 54
-16 64 -23 24 -70 20 -88 -6z"/>
<path d="M2915 6944 c-25 -25 -15 -49 23 -52 40 -4 62 12 62 44 0 21 -5 24
-34 24 -19 0 -42 -7 -51 -16z"/>
<path d="M4133 7054 c-7 -3 -13 -21 -13 -40 0 -28 4 -35 25 -40 42 -10 57 1
53 43 -3 32 -7 38 -28 40 -14 1 -31 -1 -37 -3z"/>
<path d="M4100 6826 c-30 -37 23 -66 89 -50 29 7 36 14 36 34 0 23 -4 25 -56
28 -41 2 -59 -1 -69 -12z"/>
<path d="M6478 6949 c-10 -5 -18 -21 -18 -34 0 -22 5 -25 34 -25 35 0 66 27
66 57 0 16 -57 17 -82 2z"/>
<path d="M7052 7038 c-26 -26 -13 -38 43 -38 52 0 54 1 46 23 -9 26 -68 36
-89 15z"/>
<path d="M5414 6433 c-27 -63 -4 -123 47 -123 41 0 59 24 59 80 0 57 -18 80
-61 80 -25 0 -33 -6 -45 -37z"/>
<path d="M3397 6452 c-21 -24 -22 -90 -1 -120 19 -27 64 -29 87 -4 24 26 23
104 -1 125 -24 22 -65 21 -85 -1z"/>
<path d="M4830 6451 c-15 -30 -14 -31 45 -31 38 0 55 4 55 13 0 39 -81 53
-100 18z"/>
<path d="M2167 5776 c-5 -12 1 -16 24 -16 20 0 29 4 27 13 -7 18 -45 20 -51 3z"/>
<path d="M2489 5769 c-15 -29 3 -69 31 -69 28 0 46 40 31 69 -7 11 -20 21 -31
21 -11 0 -24 -10 -31 -21z"/>
<path d="M2877 5783 c-15 -14 -6 -23 23 -23 22 0 28 4 24 15 -6 15 -35 20 -47
8z"/>
<path d="M3172 5778 c-29 -29 -4 -84 35 -76 28 5 26 82 -2 86 -11 1 -26 -3
-33 -10z"/>
<path d="M3379 5769 c-15 -29 3 -69 31 -69 28 0 46 40 31 69 -7 11 -20 21 -31
21 -11 0 -24 -10 -31 -21z"/>
<path d="M3957 5784 c-15 -15 -6 -24 24 -24 20 0 29 4 27 13 -5 14 -40 21 -51
11z"/>
<path d="M4219 5769 c-15 -29 3 -69 31 -69 28 0 46 40 31 69 -7 11 -20 21 -31
21 -11 0 -24 -10 -31 -21z"/>
<path d="M4742 5778 c-29 -29 -4 -84 35 -76 28 5 26 82 -2 86 -11 1 -26 -3
-33 -10z"/>
<path d="M5047 5733 c-16 -15 -6 -34 15 -31 29 4 38 38 10 38 -10 0 -22 -3
-25 -7z"/>
<path d="M5480 5769 c-17 -31 2 -71 33 -67 19 3 22 9 22 43 0 33 -4 41 -22 43
-14 2 -26 -4 -33 -19z"/>
<path d="M5684 5729 c-3 -6 -2 -15 4 -21 15 -15 46 -5 50 15 3 12 -3 17 -22
17 -14 0 -28 -5 -32 -11z"/>
<path d="M5999 5769 c-15 -29 3 -69 31 -69 28 0 46 40 31 69 -7 11 -20 21 -31
21 -11 0 -24 -10 -31 -21z"/>
<path d="M6900 5775 c-11 -13 -8 -15 20 -15 21 0 30 4 28 13 -7 18 -33 20 -48
2z"/>
<path d="M7147 5783 c-15 -14 -6 -23 23 -23 22 0 28 4 24 15 -6 15 -35 20 -47
8z"/>
<path d="M3502 5398 c-29 -29 -4 -84 35 -76 28 5 26 82 -2 86 -11 1 -26 -3
-33 -10z"/>
<path d="M5584 5396 c-3 -8 -4 -27 -2 -43 2 -20 9 -29 25 -31 30 -4 50 36 34
67 -13 24 -49 28 -57 7z"/>
<path d="M2077 5403 c-14 -14 -7 -74 9 -80 37 -14 70 41 44 73 -13 15 -42 19
-53 7z"/>
<path d="M2407 5353 c-16 -15 -6 -34 15 -31 29 4 38 38 10 38 -10 0 -22 -3
-25 -7z"/>
<path d="M3005 5400 c-9 -15 4 -30 26 -30 12 0 19 7 19 20 0 21 -33 29 -45 10z"/>
<path d="M2997 5293 c-19 -18 -6 -34 25 -31 44 4 53 38 10 38 -16 0 -32 -3
-35 -7z"/>
<path d="M3207 5353 c-16 -15 -6 -34 15 -31 29 4 38 38 10 38 -10 0 -22 -3
-25 -7z"/>
<path d="M3724 5397 c-3 -9 -4 -28 -2 -44 2 -22 8 -28 28 -28 23 0 25 4 25 40
0 34 -3 40 -23 43 -13 2 -24 -3 -28 -11z"/>
<path d="M3870 5395 c-11 -13 -8 -15 20 -15 21 0 30 4 28 13 -7 18 -33 20 -48
2z"/>
<path d="M4010 5395 c-11 -13 -8 -15 20 -15 21 0 30 4 28 13 -7 18 -33 20 -48
2z"/>
<path d="M4419 5389 c-15 -29 3 -69 31 -69 28 0 46 40 31 69 -7 11 -20 21 -31
21 -11 0 -24 -10 -31 -21z"/>
<path d="M4660 5396 c-15 -19 -9 -56 12 -69 34 -22 66 41 36 71 -16 16 -33 15
-48 -2z"/>
<path d="M4807 5396 c-5 -12 1 -16 24 -16 20 0 29 4 27 13 -7 18 -45 20 -51 3z"/>
<path d="M4947 5396 c-5 -12 1 -16 24 -16 20 0 29 4 27 13 -7 18 -45 20 -51 3z"/>
<path d="M5447 5353 c-16 -15 -6 -34 15 -31 29 4 38 38 10 38 -10 0 -22 -3
-25 -7z"/>
<path d="M5737 5396 c-5 -12 1 -16 24 -16 20 0 29 4 27 13 -7 18 -45 20 -51 3z"/>
<path d="M6059 5389 c-15 -29 3 -69 31 -69 28 0 46 40 31 69 -7 11 -20 21 -31
21 -11 0 -24 -10 -31 -21z"/>
<path d="M6497 5403 c-15 -14 -6 -23 23 -23 22 0 28 4 24 15 -6 15 -35 20 -47
8z"/>
<path d="M6730 5390 c0 -16 5 -21 23 -18 12 2 22 10 22 18 0 8 -10 16 -22 18
-18 3 -23 -2 -23 -18z"/>
<path d="M6727 5293 c-19 -18 -6 -34 25 -31 44 4 53 38 10 38 -16 0 -32 -3
-35 -7z"/>
<path d="M6870 5395 c-11 -13 -8 -15 20 -15 21 0 30 4 28 13 -7 18 -33 20 -48
2z"/>
<path d="M2483 4715 c0 -38 2 -53 4 -32 2 20 2 52 0 70 -2 17 -4 1 -4 -38z"/>
<path d="M2081 4756 c-15 -18 -5 -41 26 -55 21 -10 23 -14 13 -26 -8 -10 -21
-13 -33 -9 -13 4 -17 2 -13 -5 16 -25 66 -4 66 26 0 7 -11 19 -25 25 -28 13
-30 44 -2 42 9 -1 17 2 17 7 0 14 -36 10 -49 -5z"/>
<path d="M2782 4708 l1 -63 6 50 6 50 30 -47 c16 -27 33 -48 37 -48 5 0 7 28
6 63 l-1 62 -6 -50 -6 -50 -28 48 c-16 26 -33 47 -38 47 -5 0 -8 -28 -7 -62z"/>
<path d="M3285 4740 c18 -20 17 -20 -18 -20 -21 0 -37 -4 -37 -10 0 -5 16 -10
37 -10 35 0 36 0 18 -20 -26 -29 -3 -24 25 5 l23 25 -23 25 c-28 29 -51 34
-25 5z"/>
<path d="M2172 4728 c-30 -30 -2 -86 38 -73 19 6 25 22 20 55 -4 28 -37 39
-58 18z m43 -34 c0 -32 -21 -39 -38 -12 -8 12 -7 21 3 32 19 24 35 14 35 -20z"/>
<path d="M2272 4728 c-29 -29 -8 -80 31 -77 7 0 2 4 -10 9 -16 6 -23 18 -23
35 0 17 7 29 23 35 13 5 16 9 7 9 -9 1 -21 -4 -28 -11z"/>
<path d="M2343 4695 c0 -27 2 -38 4 -22 2 15 2 37 0 50 -2 12 -4 0 -4 -28z"/>
<path d="M2396 4731 c-4 -5 2 -7 13 -4 10 3 21 -2 24 -10 4 -10 -3 -17 -24
-21 -43 -8 -36 -41 9 -41 29 -1 32 2 32 30 0 43 -37 74 -54 46z m34 -50 c0
-14 -18 -23 -30 -16 -6 4 -8 11 -5 16 8 12 35 12 35 0z"/>
<path d="M2533 4695 c0 -27 2 -38 4 -22 2 15 2 37 0 50 -2 12 -4 0 -4 -28z"/>
<path d="M2583 4733 c22 -6 22 -15 -3 -46 -27 -34 -26 -37 13 -36 23 1 26 3
10 6 -28 5 -28 8 -3 40 27 34 25 43 -7 42 -17 -1 -21 -3 -10 -6z"/>
<path d="M2652 4728 c-28 -28 -7 -79 33 -77 19 0 19 0 -1 9 -36 14 -38 30 -5
30 19 0 31 5 31 13 0 16 -20 37 -35 37 -6 0 -16 -5 -23 -12z m46 -15 c2 -8 -5
-13 -17 -13 -12 0 -21 6 -21 16 0 18 31 15 38 -3z"/>
<path d="M2912 4728 c-30 -30 -2 -86 38 -73 19 6 25 22 20 55 -4 28 -37 39
-58 18z m43 -34 c0 -32 -21 -39 -38 -12 -8 12 -7 21 3 32 19 24 35 14 35 -20z"/>
<path d="M2994 4724 c4 -10 10 -31 13 -46 3 -16 10 -28 15 -28 6 0 7 8 3 18
-4 9 -10 27 -12 40 -3 12 -10 25 -16 29 -7 4 -8 0 -3 -13z"/>
<path d="M3036 4718 c-10 -39 -7 -44 9 -14 17 33 18 36 6 36 -5 0 -11 -10 -15
-22z"/>
<path d="M3094 4711 c-4 -17 -11 -34 -15 -37 -12 -7 -12 -24 0 -24 9 0 33 81
26 89 -3 2 -8 -10 -11 -28z"/>
<path d="M3061 4694 c0 -11 3 -14 6 -6 3 7 2 16 -1 19 -3 4 -6 -2 -5 -13z"/>
<path d="M2568 3874 c-49 -26 -58 -59 -58 -214 0 -157 9 -189 60 -215 37 -19
63 -19 101 1 48 24 59 65 59 219 0 151 -9 184 -60 210 -36 19 -67 19 -102 -1z
m77 -84 c0 -18 -6 -26 -23 -28 -13 -2 -25 3 -28 12 -10 26 4 48 28 44 17 -2
23 -10 23 -28z"/>
<path d="M16453 9273 c-7 -2 -13 -22 -13 -44 0 -33 4 -40 26 -45 37 -9 76 7
80 32 4 25 -21 63 -33 50 -4 -5 -2 -11 5 -13 6 -3 12 -13 12 -24 0 -32 -40
-21 -54 15 -4 12 -2 23 6 28 10 6 10 8 -2 7 -8 0 -21 -3 -27 -6z"/>
<path d="M16530 9111 c-21 -6 -25 -13 -25 -46 0 -33 4 -41 25 -48 37 -13 80 7
80 36 0 13 -9 32 -20 42 -11 10 -20 13 -20 7 0 -7 5 -12 10 -12 6 0 10 -11 10
-25 0 -28 -3 -29 -31 -15 -21 12 -25 40 -7 58 7 7 10 12 8 11 -3 -1 -16 -4
-30 -8z"/>
<path d="M18715 9100 c-8 -13 5 -13 25 0 13 8 13 10 -2 10 -9 0 -20 -4 -23
-10z"/>
<path d="M18945 9084 c-27 -7 -59 -14 -70 -14 -11 -1 -51 -23 -90 -51 -38 -27
-91 -59 -117 -71 -26 -13 -48 -26 -48 -30 0 -5 17 -8 38 -8 21 0 44 -6 50 -12
10 -10 14 -10 21 0 4 7 12 12 17 11 5 -1 17 1 27 6 10 4 40 5 68 3 42 -4 52
-2 65 16 13 19 13 23 -3 36 -10 8 -17 23 -15 33 4 18 27 23 37 7 3 -5 18 -10
33 -10 23 -1 25 -2 10 -11 -22 -12 -24 -45 -4 -52 26 -10 37 19 34 91 l-3 69
-50 -13z"/>
<path d="M18600 8983 c1 -24 18 -35 39 -24 30 17 26 31 -9 31 -16 0 -30 -3
-30 -7z"/>
<path d="M16581 8939 c-20 -8 -22 -14 -17 -40 3 -17 6 -35 6 -39 0 -15 51 -20
77 -8 33 16 37 41 12 70 -10 13 -18 18 -19 13 0 -6 5 -16 11 -22 7 -7 9 -19 5
-28 -6 -16 -9 -16 -29 -2 -24 16 -29 35 -14 55 11 14 2 15 -32 1z"/>
<path d="M18786 8903 c-3 -4 -16 -8 -28 -10 -29 -5 -83 -37 -82 -49 1 -5 11
-14 23 -20 12 -6 29 -21 37 -33 19 -27 44 -27 44 -1 0 11 4 20 10 20 5 0 7 13
4 30 -5 23 -3 30 9 30 20 0 39 -33 31 -55 -4 -10 2 -24 14 -36 21 -19 24 -19
87 -3 l65 16 0 40 c0 24 -4 37 -10 33 -5 -3 -10 -17 -10 -30 0 -24 -17 -35
-53 -35 -21 0 -20 0 2 21 21 20 22 23 6 32 -14 8 -15 11 -4 18 10 6 8 9 -8 9
-12 0 -23 6 -25 12 -3 9 -9 8 -22 -5 -23 -22 -38 -22 -54 3 -13 21 -24 25 -36
13z m-18 -88 c-3 -3 -9 2 -12 12 -6 14 -5 15 5 6 7 -7 10 -15 7 -18z"/>
<path d="M18640 8861 c0 -6 4 -13 10 -16 6 -3 7 1 4 9 -7 18 -14 21 -14 7z"/>
<path d="M13862 8760 c-40 -9 -75 -20 -78 -22 -2 -3 1 -17 7 -32 14 -29 5 -30
141 1 l67 14 -11 30 c-12 34 -21 35 -126 9z"/>
<path d="M16642 8771 c-8 -5 -12 -23 -10 -47 3 -36 6 -39 35 -42 62 -6 93 37
52 74 -10 9 -19 12 -19 6 0 -6 5 -12 12 -14 16 -6 2 -38 -17 -38 -21 0 -40 50
-23 62 10 6 10 8 -2 8 -8 0 -21 -4 -28 -9z"/>
<path d="M13210 8735 c-36 -37 -118 -81 -170 -91 -35 -8 -34 -3 -13 -71 13
-40 21 -53 36 -53 16 0 173 33 314 65 19 4 22 10 16 36 -4 22 0 38 16 60 16
22 18 31 9 34 -42 15 -162 55 -168 55 -3 0 -22 -16 -40 -35z"/>
<path d="M13147 8753 c-4 -3 -7 -11 -7 -17 0 -6 5 -5 12 2 6 6 9 14 7 17 -3 3
-9 2 -12 -2z"/>
<path d="M13185 8749 c-4 -6 -25 -24 -47 -40 -23 -16 -37 -29 -31 -29 15 0 93
59 93 70 0 13 -7 13 -15 -1z"/>
<path d="M18828 8753 c7 -3 16 -2 19 1 4 3 -2 6 -13 5 -11 0 -14 -3 -6 -6z"/>
<path d="M13008 8703 c6 -2 18 -2 25 0 6 3 1 5 -13 5 -14 0 -19 -2 -12 -5z"/>
<path d="M13070 8700 c-8 -5 -10 -10 -5 -10 6 0 17 5 25 10 8 5 11 10 5 10 -5
0 -17 -5 -25 -10z"/>
<path d="M13468 8696 c-19 -14 -24 -51 -9 -60 5 -3 11 3 14 14 3 11 10 20 17
20 7 0 9 -8 5 -22 -6 -17 -4 -20 9 -15 12 5 16 0 16 -18 0 -14 5 -25 11 -25 5
0 7 -5 4 -10 -3 -6 -17 -7 -30 -4 -26 6 -45 -14 -24 -27 21 -13 45 -11 87 7
l37 16 -25 11 c-21 10 -25 20 -27 57 -3 63 -43 89 -85 56z"/>
<path d="M13010 8660 c-13 -9 -13 -10 0 -9 8 0 24 4 35 9 l20 9 -20 0 c-11 0
-27 -4 -35 -9z"/>
<path d="M14355 8563 c27 -4 65 -32 65 -48 0 -10 -63 -60 -73 -57 -5 1 -7 -5
-5 -15 7 -33 108 -15 108 19 0 5 -10 6 -22 3 -18 -5 -20 -4 -8 4 8 6 23 11 33
11 19 0 22 22 7 50 -11 21 -69 41 -110 38 -22 -1 -21 -2 5 -5z"/>
<path d="M14270 8482 c0 -18 28 -45 38 -38 18 11 14 22 -13 34 -14 6 -25 8
-25 4z"/>
<path d="M14663 8443 c-23 -4 -30 -17 -14 -27 4 -3 16 3 26 14 10 11 16 19 14
19 -2 -1 -14 -4 -26 -6z"/>
<path d="M14440 8273 c-25 -10 -50 -35 -50 -51 0 -12 5 -11 27 4 20 12 45 17
87 16 55 -2 59 0 44 14 -16 17 -83 27 -108 17z"/>
<path d="M14453 8223 c-15 -6 -17 -39 -3 -48 17 -10 11 -25 -10 -25 -31 0 -24
-18 10 -25 43 -9 84 2 111 31 l24 26 -25 -4 c-19 -2 -28 3 -37 25 -12 26 -37
34 -70 20z"/>
<path d="M14750 8140 c0 -17 22 -22 36 -8 12 12 10 14 -11 16 -14 1 -25 -2
-25 -8z"/>
<path d="M14088 8008 c-38 -8 -48 -14 -48 -30 0 -18 4 -20 47 -13 63 9 95 23
91 38 -6 16 -32 17 -90 5z m15 -25 c-7 -2 -19 -2 -25 0 -7 3 -2 5 12 5 14 0
19 -2 13 -5z"/>
<path d="M14565 7969 c-11 -17 0 -20 21 -4 17 13 17 14 2 15 -9 0 -20 -5 -23
-11z"/>
<path d="M14622 7974 c11 -10 -44 -50 -79 -57 -36 -7 -46 8 -12 18 11 4 18 9
15 12 -9 9 -57 -27 -51 -37 3 -6 8 -19 10 -31 5 -24 32 -48 54 -49 10 0 5 10
-12 28 -15 16 -24 31 -20 35 11 12 41 8 46 -5 3 -10 7 -10 20 1 11 9 17 10 17
2 0 -6 6 -11 14 -11 8 0 16 -10 18 -21 l3 -21 25 21 c24 20 24 22 7 35 -14 10
-15 16 -6 22 9 5 5 10 -10 16 -14 5 -21 14 -18 22 3 8 -2 17 -11 21 -9 3 -13
3 -10 -1z m-2 -44 c-20 -13 -33 -13 -25 0 3 6 14 10 23 10 15 0 15 -2 2 -10z"/>
<path d="M14882 7853 c-13 -3 -21 -10 -19 -16 6 -20 25 -19 37 2 6 12 9 20 8
20 -2 -1 -13 -4 -26 -6z"/>
<path d="M14641 7676 c-56 -31 -57 -96 -2 -129 80 -47 190 13 161 88 -18 47
-106 70 -159 41z"/>
<path d="M14976 7553 c-3 -3 -3 -10 0 -14 7 -12 34 -11 34 0 0 11 -26 22 -34
14z"/>
<path d="M14785 7294 c9 -9 19 -14 22 -11 3 4 15 0 27 -8 26 -19 36 -19 36 -2
0 8 -17 19 -39 25 -53 17 -66 15 -46 -4z"/>
<path d="M15090 7244 c0 -9 5 -14 12 -12 18 6 21 28 4 28 -9 0 -16 -7 -16 -16z"/>
<path d="M14884 7090 c-33 -13 -43 -34 -13 -27 13 3 42 9 64 13 32 6 36 9 20
15 -26 10 -45 10 -71 -1z"/>
<path d="M14473 6980 c-13 -5 -23 -14 -23 -19 0 -6 -7 -8 -15 -5 -10 4 -15 0
-15 -10 0 -13 8 -15 47 -10 57 6 78 20 62 40 -13 16 -24 17 -56 4z"/>
<path d="M13819 6911 c-28 -22 -20 -38 9 -22 12 6 42 11 69 11 44 1 47 2 29
15 -27 21 -79 19 -107 -4z"/>
<path d="M17365 6906 c-16 -11 -17 -19 -9 -47 9 -30 14 -34 48 -37 58 -5 85
38 46 73 -12 10 -20 13 -20 7 0 -7 5 -12 10 -12 6 0 10 -9 10 -20 0 -31 -38
-26 -51 7 -7 20 -6 28 3 35 10 6 9 8 -3 8 -8 0 -24 -6 -34 -14z"/>
<path d="M13850 6880 c-12 -8 -13 -13 -2 -30 10 -17 10 -21 -3 -26 -24 -10 -6
-24 30 -24 22 0 43 9 62 26 l28 25 -30 -6 c-16 -4 -27 -3 -23 1 11 11 -11 44
-30 44 -9 0 -24 -5 -32 -10z"/>
<path d="M17433 6743 c-7 -2 -13 -22 -13 -44 0 -33 4 -40 26 -45 36 -9 76 7
80 30 3 24 -13 56 -28 56 -9 0 -9 -3 0 -12 17 -17 15 -48 -3 -48 -8 0 -22 12
-31 26 -15 22 -15 27 -3 35 12 7 12 9 -1 8 -8 0 -21 -3 -27 -6z"/>
<path d="M17503 6580 c-34 -14 -33 -76 1 -91 59 -27 114 25 73 68 -11 13 -23
20 -26 17 -3 -4 0 -9 7 -11 12 -5 18 -53 6 -53 -3 0 -14 5 -25 10 -21 12 -25
40 -7 58 14 14 3 15 -29 2z"/>
<path d="M15021 6564 c0 -11 3 -14 6 -6 3 7 2 16 -1 19 -3 4 -6 -2 -5 -13z"/>
<path d="M14947 6550 c-5 -21 0 -25 21 -11 10 6 10 10 -1 20 -12 9 -16 7 -20
-9z"/>
<path d="M15750 6551 c0 -7 -4 -9 -10 -6 -5 3 -10 1 -10 -4 0 -6 4 -11 9 -11
13 0 25 20 17 27 -3 4 -6 1 -6 -6z"/>
<path d="M15371 6494 c-60 -16 -81 -29 -81 -50 0 -19 -9 -17 -28 6 -14 17 -22
19 -52 11 -19 -5 -61 -15 -92 -21 -42 -8 -58 -16 -58 -28 0 -26 114 -321 126
-326 13 -5 385 73 397 83 6 6 -98 299 -118 330 -8 14 -28 13 -94 -5z m9 -72
c0 -14 -46 -53 -53 -45 -14 13 -6 34 16 43 29 11 37 12 37 2z m40 -52 c0 -5
-7 -10 -16 -10 -8 0 -12 5 -9 10 3 6 10 10 16 10 5 0 9 -4 9 -10z"/>
<path d="M14835 6410 c-16 -5 -56 -14 -87 -20 l-58 -11 15 -30 c18 -34 25 -34
124 -10 79 19 89 27 71 60 -12 23 -19 24 -65 11z"/>
<path d="M14125 6373 c-31 -37 -106 -78 -163 -89 -31 -6 -33 -9 -28 -35 3 -15
12 -44 20 -63 l14 -34 114 24 c62 14 140 31 173 38 l60 12 -3 35 c-2 23 3 43
17 61 l21 26 -94 31 c-52 17 -96 31 -98 30 -2 0 -16 -17 -33 -36z"/>
<path d="M14085 6370 c-16 -17 -52 -39 -79 -50 -29 -12 -38 -18 -21 -15 53 11
148 75 133 90 -2 3 -17 -9 -33 -25z"/>
<path d="M14044 6368 l-19 -23 23 19 c21 18 27 26 19 26 -2 0 -12 -10 -23 -22z"/>
<path d="M14388 6334 c-29 -15 -32 -22 -22 -48 8 -20 24 -21 24 -1 0 8 4 15
10 15 5 0 7 -7 4 -15 -4 -11 0 -15 17 -15 12 0 19 -3 16 -7 -4 -3 0 -17 9 -31
16 -24 16 -25 -15 -20 -19 3 -36 -1 -42 -8 -16 -20 35 -29 82 -15 42 13 53 31
18 31 -18 0 -21 4 -16 28 9 44 -3 79 -29 91 -29 13 -23 14 -56 -5z"/>
<path d="M13965 6330 c-13 -6 -15 -9 -5 -9 8 0 22 4 30 9 18 12 2 12 -25 0z"/>
<path d="M13918 6313 c7 -3 16 -2 19 1 4 3 -2 6 -13 5 -11 0 -14 -3 -6 -6z"/>
<path d="M13928 6293 c7 -3 16 -2 19 1 4 3 -2 6 -13 5 -11 0 -14 -3 -6 -6z"/>
<path d="M15635 6240 c-4 -6 1 -7 11 -3 13 5 15 2 9 -15 -5 -16 -2 -22 9 -22
10 0 16 9 16 25 0 18 -5 25 -19 25 -11 0 -23 -4 -26 -10z"/>
<path d="M16165 6110 c3 -5 8 -10 11 -10 2 0 4 5 4 10 0 6 -5 10 -11 10 -5 0
-7 -4 -4 -10z"/>
<path d="M15798 6023 c6 -2 18 -2 25 0 6 3 1 5 -13 5 -14 0 -19 -2 -12 -5z"/>
<path d="M15595 6013 c-11 -3 -92 -20 -180 -39 -88 -20 -164 -39 -169 -44 -9
-9 98 -307 119 -329 11 -11 43 -7 201 28 103 23 192 45 197 50 9 9 -94 302
-115 329 -11 12 -18 13 -53 5z m-61 -179 c20 -8 21 -38 2 -54 -34 -28 -94 11
-67 44 14 17 38 20 65 10z"/>
<path d="M12480 5849 c-19 -5 -105 -23 -190 -40 -85 -17 -161 -36 -168 -42
-16 -13 -11 -33 29 -139 19 -49 37 -79 49 -83 10 -3 62 4 117 16 54 11 147 31
206 44 60 12 114 28 120 34 8 8 3 33 -18 93 -45 134 -53 140 -145 117z m-35
-99 c19 -37 19 -51 -1 -25 -26 34 -36 55 -25 55 6 0 17 -13 26 -30z m50 -4
c11 -7 39 -17 63 -21 23 -4 42 -10 42 -13 -1 -23 -31 -42 -70 -44 -47 -3 -66
15 -28 27 l23 7 -24 7 c-13 3 -28 16 -32 29 -10 25 -2 28 26 8z m-85 -16 c0
-5 -5 -10 -11 -10 -5 0 -7 5 -4 10 3 6 8 10 11 10 2 0 4 -4 4 -10z"/>
<path d="M11665 5819 c-71 -16 -227 -51 -345 -79 -118 -27 -291 -65 -385 -85
-210 -42 -348 -72 -580 -125 -99 -22 -263 -59 -365 -81 -297 -64 -320 -71
-320 -99 0 -30 25 -43 71 -35 35 6 44 4 68 -19 19 -18 42 -28 77 -32 47 -5
114 -43 114 -65 0 -5 -18 -9 -40 -9 -22 0 -40 -4 -40 -10 0 -5 5 -10 10 -10
23 0 9 -38 -16 -44 -15 -4 -24 -9 -22 -11 12 -12 86 20 106 46 13 16 32 29 43
29 29 0 59 -18 59 -35 0 -15 -7 -18 -109 -38 -47 -9 -65 -17 -67 -30 -1 -9 1
-19 5 -21 11 -7 247 -6 324 0 57 5 67 4 67 -10 0 -9 5 -16 11 -16 5 0 7 -4 4
-10 -3 -5 -19 -7 -35 -3 -33 6 -37 -2 -15 -30 7 -11 11 -26 8 -35 -6 -13 1
-14 48 -8 30 3 107 13 173 21 65 8 123 18 130 23 6 5 58 12 116 16 58 3 119
10 135 15 l30 9 -42 7 c-51 9 -55 21 -10 33 24 7 31 13 29 28 -2 10 -5 23 -5
28 -1 5 4 11 11 13 8 3 18 -8 25 -26 15 -42 27 -39 20 4 -4 23 -2 35 6 35 6 0
19 -16 28 -35 l17 -35 102 0 c56 0 138 5 181 11 76 10 183 45 183 60 0 7 103
49 118 49 4 -1 -13 -12 -38 -26 -39 -22 -41 -24 -15 -19 17 3 66 12 110 20 43
9 97 24 120 35 22 10 58 22 80 25 22 4 45 13 50 20 6 7 42 18 80 24 39 7 77
16 85 21 16 10 17 5 -48 185 -87 239 -124 331 -139 343 -24 17 -61 14 -208
-19z m-580 -269 c-18 -20 -45 -27 -45 -12 0 15 24 32 44 32 18 0 19 -1 1 -20z
m565 -215 c0 -8 -9 -15 -19 -15 -24 0 -37 -36 -21 -55 7 -8 27 -15 45 -15 38
0 59 21 50 50 -5 14 -2 20 9 20 21 0 21 -44 0 -64 -61 -62 -163 7 -103 70 26
27 39 31 39 9z m-1044 -30 c6 -8 18 -15 25 -15 21 0 60 -30 54 -41 -9 -14 -71
-11 -124 6 -25 8 -63 17 -83 20 -38 6 -53 25 -20 25 9 1 28 7 42 15 30 18 90
12 106 -10z m1074 -21 c0 -8 -9 -14 -20 -14 -22 0 -28 26 -7 33 16 6 27 -1 27
-19z m185 -4 c25 -6 20 -8 -27 -9 -31 0 -60 4 -63 9 -7 12 45 12 90 0z m-1405
-179 c-49 -25 -93 -35 -88 -20 5 15 63 37 98 38 23 0 22 -1 -10 -18z m290 -41
c-14 -4 -34 -8 -45 -9 -16 -1 -17 1 -5 9 8 5 29 9 45 9 29 -1 29 -1 5 -9z"/>
<path d="M15824 5748 c-4 -7 -3 -8 4 -4 8 5 12 0 12 -13 0 -12 6 -21 14 -21 9
0 12 8 8 25 -5 26 -26 33 -38 13z"/>
<path d="M12855 5720 c-3 -5 -1 -10 4 -10 6 0 11 5 11 10 0 6 -2 10 -4 10 -3
0 -8 -4 -11 -10z"/>
<path d="M15012 5646 c-60 -15 -70 -22 -55 -37 12 -12 98 -4 122 11 14 8 8 41
-6 39 -4 0 -32 -6 -61 -13z m11 -23 c-7 -2 -19 -2 -25 0 -7 3 -2 5 12 5 14 0
19 -2 13 -5z"/>
<path d="M16206 5581 c-4 -5 3 -7 14 -4 23 6 26 13 6 13 -8 0 -17 -4 -20 -9z"/>
<path d="M12585 5554 c-27 -8 -75 -19 -105 -25 -109 -20 -245 -54 -251 -62 -7
-10 14 -76 50 -159 18 -42 24 -48 51 -48 34 0 41 19 10 27 -12 3 -20 14 -20
27 0 17 2 18 10 6 8 -13 10 -12 10 3 0 17 1 17 24 0 18 -13 23 -24 19 -40 -5
-21 -3 -22 28 -17 103 19 295 66 318 77 33 16 31 34 -12 141 -36 92 -44 96
-132 70z m-32 -81 c-7 -2 -19 -2 -25 0 -7 3 -2 5 12 5 14 0 19 -2 13 -5z m-50
-10 c-7 -2 -19 -2 -25 0 -7 3 -2 5 12 5 14 0 19 -2 13 -5z m-95 -25 c-3 -7
-11 -13 -18 -13 -7 0 -15 6 -17 13 -3 7 4 12 17 12 13 0 20 -5 18 -12z m-83
-78 c-3 -5 -10 -10 -16 -10 -5 0 -9 5 -9 10 0 6 7 10 16 10 8 0 12 -4 9 -10z"/>
<path d="M15720 5510 c-41 -10 -122 -28 -179 -41 -59 -13 -105 -28 -108 -36
-7 -18 107 -323 123 -330 7 -2 95 14 196 36 102 23 187 41 191 41 4 0 7 8 7
17 0 24 -112 317 -124 325 -14 10 -16 9 -106 -12z"/>
<path d="M15900 5520 c0 -5 5 -10 11 -10 5 0 7 5 4 10 -3 6 -8 10 -11 10 -2 0
-4 -4 -4 -10z"/>
<path d="M15950 5520 c-9 -6 -10 -10 -3 -10 6 0 15 5 18 10 8 12 4 12 -15 0z"/>
<path d="M12019 5260 c-78 -20 -208 -65 -247 -86 -15 -7 -44 -14 -65 -14 -21
0 -54 -7 -74 -15 -19 -8 -47 -15 -60 -15 -44 0 -267 -62 -291 -81 -34 -26
-118 -52 -182 -55 -30 -1 -107 -16 -170 -34 -63 -17 -149 -35 -190 -40 -192
-22 -338 -41 -370 -50 -19 -4 -64 -11 -100 -15 -59 -6 -209 -31 -352 -59 l-56
-11 98 -264 c54 -145 105 -268 112 -273 32 -21 70 -17 285 32 125 28 300 67
388 85 207 44 278 63 287 78 5 8 8 9 8 1 0 -12 16 -10 230 35 269 56 337 76
345 100 7 23 100 69 168 82 46 10 58 9 71 -3 16 -16 5 -45 -13 -34 -6 4 -11 2
-11 -3 0 -15 11 -14 51 3 l34 14 -28 13 c-47 21 -36 31 55 43 23 3 41 0 45 -7
23 -36 39 -38 125 -21 103 20 118 28 118 60 0 18 7 28 21 31 18 5 20 12 16 42
-5 42 -155 451 -171 467 -8 8 -29 7 -77 -6z m-366 -298 c-2 -7 2 -12 7 -12 6
0 10 -9 10 -20 0 -15 -7 -20 -24 -20 -25 0 -36 20 -28 53 5 20 39 19 35 -1z
m98 -2 c12 0 16 -5 13 -14 -6 -17 -75 -18 -86 -2 -8 13 20 27 40 20 8 -2 22
-4 33 -4z m97 -34 c15 -8 39 -25 52 -39 14 -13 33 -26 42 -28 23 -5 10 -24
-22 -34 -22 -7 -23 -6 -12 8 9 10 10 17 2 22 -5 3 -10 1 -10 -4 0 -20 -17 -11
-28 14 -8 18 -22 26 -52 31 -25 4 -40 12 -40 21 0 8 5 11 10 8 6 -4 10 6 10
22 1 24 2 25 11 10 5 -9 22 -23 37 -31z m-310 -36 c-17 -17 -33 -29 -36 -26
-10 10 29 56 47 56 17 0 15 -5 -11 -30z m407 20 c3 -5 1 -10 -4 -10 -6 0 -11
5 -11 10 0 6 2 10 4 10 3 0 8 -4 11 -10z m35 -152 c0 -4 -4 -8 -9 -8 -6 0 -12
4 -15 8 -3 5 1 9 9 9 8 0 15 -4 15 -9z m-130 -18 c0 -5 -5 -10 -11 -10 -5 0
-7 5 -4 10 3 6 8 10 11 10 2 0 4 -4 4 -10z m-626 -14 c-6 -17 -48 -26 -66 -15
-9 6 -6 11 12 18 37 15 60 13 54 -3z m506 -16 c0 -5 -4 -10 -10 -10 -5 0 -10
5 -10 10 0 6 5 10 10 10 6 0 10 -4 10 -10z m-586 -34 c-6 -16 -8 -17 -16 -2
-11 19 0 42 13 29 6 -6 7 -18 3 -27z m-127 -122 c-3 -3 -12 -4 -19 -1 -8 3 -5
6 6 6 11 1 17 -2 13 -5z m-196 -39 c0 -5 -31 -15 -68 -22 -37 -8 -119 -25
-181 -39 -62 -14 -117 -24 -124 -22 -6 2 56 19 138 37 82 18 165 38 184 46 38
14 52 14 51 0z m-553 -126 c3 -19 -21 -31 -43 -23 -8 4 -15 15 -15 26 0 15 6
19 27 16 16 -2 29 -10 31 -19z"/>
<path d="M12742 5268 c-7 -7 -12 -16 -12 -21 0 -18 -53 -77 -70 -77 -10 0 -20
-6 -23 -12 -3 -10 -8 -10 -16 -2 -8 7 -29 8 -62 3 -27 -4 -75 -4 -107 2 -69
11 -112 4 -112 -19 1 -9 15 -53 33 -97 27 -68 36 -80 57 -83 32 -3 419 83 432
96 7 7 7 20 1 38 -7 22 -16 28 -39 29 -35 0 -41 28 -7 33 l22 3 -19 51 c-25
65 -50 84 -78 56z m-335 -114 c-3 -3 -12 -4 -19 -1 -8 3 -5 6 6 6 11 1 17 -2
13 -5z"/>
<path d="M16010 5261 c0 -6 4 -11 10 -11 5 0 7 -7 4 -15 -4 -10 0 -15 11 -15
22 0 16 44 -7 48 -10 2 -18 -1 -18 -7z"/>
<path d="M9495 5215 c-27 -7 -62 -16 -78 -19 -27 -6 -27 -7 -12 -37 11 -20 22
-28 33 -25 9 2 52 12 95 21 73 15 78 18 73 38 -3 12 -6 25 -6 30 0 10 -48 7
-105 -8z"/>
<path d="M8821 5189 c-25 -34 -150 -99 -189 -99 -21 0 -24 -4 -19 -27 12 -60
37 -104 55 -99 9 3 71 17 137 31 214 46 201 41 197 81 -3 27 1 41 18 59 18 19
20 25 9 29 -8 2 -48 16 -91 30 -42 14 -80 26 -85 26 -5 0 -19 -14 -32 -31z"/>
<path d="M9795 5199 c-36 -29 -31 -40 18 -36 53 5 82 20 74 39 -8 22 -62 20
-92 -3z"/>
<path d="M8762 5174 c-24 -18 -71 -42 -105 -53 -34 -11 -54 -20 -45 -20 35 -2
132 43 167 75 46 43 38 42 -17 -2z"/>
<path d="M8710 5169 c-24 -16 -41 -29 -37 -29 14 0 63 29 76 44 18 21 14 20
-39 -15z"/>
<path d="M16728 5163 c7 -3 16 -2 19 1 4 3 -2 6 -13 5 -11 0 -14 -3 -6 -6z"/>
<path d="M9070 5140 c-18 -18 -19 -24 -8 -43 l13 -22 3 23 c2 12 9 22 17 22 8
0 11 -7 8 -20 -4 -14 0 -20 11 -20 9 0 16 -6 16 -14 0 -8 3 -22 7 -32 5 -14 2
-16 -19 -11 -16 4 -30 2 -37 -7 -17 -20 29 -29 79 -16 46 12 58 26 30 33 -16
4 -20 14 -20 46 0 70 -57 104 -100 61z"/>
<path d="M8638 5133 c7 -3 16 -2 19 1 4 3 -2 6 -13 5 -11 0 -14 -3 -6 -6z"/>
<path d="M16229 5061 c-20 -4 -24 -9 -15 -17 8 -7 17 -5 30 8 11 10 18 17 15
17 -2 -1 -16 -4 -30 -8z"/>
<path d="M9878 5033 c7 -3 16 -2 19 1 4 3 -2 6 -13 5 -11 0 -14 -3 -6 -6z"/>
<path d="M15803 4997 c-100 -23 -185 -45 -189 -49 -8 -9 43 -153 59 -166 19
-16 50 -17 74 -4 17 9 22 9 27 -4 4 -11 1 -14 -13 -9 -11 3 -22 1 -26 -5 -4
-7 -17 -9 -30 -6 -22 6 -22 5 -13 -34 9 -35 14 -40 39 -40 16 0 29 -4 29 -10
0 -5 -9 -10 -20 -10 -21 0 -26 -16 -11 -39 8 -13 19 -13 78 -1 158 31 316 69
325 78 15 15 -49 162 -68 155 -11 -4 -13 -14 -9 -33 3 -16 2 -31 -4 -34 -12
-8 -36 28 -45 65 -5 23 -2 27 19 31 20 4 23 3 14 -8 -9 -11 -8 -14 4 -14 27 0
28 16 6 87 -22 72 -35 94 -53 92 -6 -1 -93 -20 -193 -42z m106 -151 c14 -17
59 -27 67 -14 3 4 10 6 15 3 11 -7 12 -26 2 -23 -5 1 -27 -4 -51 -11 -58 -16
-106 -11 -110 12 -8 39 51 65 77 33z m96 -56 c3 -5 1 -10 -4 -10 -6 0 -11 -6
-11 -14 0 -19 -57 -31 -75 -16 -20 16 -45 5 -45 -20 0 -17 -6 -20 -50 -20 -58
0 -63 5 -17 20 27 8 23 9 -28 5 l-60 -5 45 16 c25 8 61 17 81 20 21 2 57 11
80 18 55 17 76 19 84 6z m-260 -80 c3 -5 -1 -10 -9 -10 -9 0 -16 5 -16 10 0 6
4 10 9 10 6 0 13 -4 16 -10z"/>
<path d="M15865 4820 c3 -5 8 -10 11 -10 2 0 4 5 4 10 0 6 -5 10 -11 10 -5 0
-7 -4 -4 -10z"/>
<path d="M16070 5031 c0 -10 19 -25 25 -20 1 2 -3 10 -11 17 -8 7 -14 8 -14 3z"/>
<path d="M10085 4994 c-38 -8 -96 -17 -127 -20 -56 -7 -76 -19 -40 -26 9 -2
-9 -9 -40 -16 -61 -14 -83 -38 -25 -29 17 3 94 11 169 18 l137 13 -6 25 -6 26
25 -22 c41 -38 103 -26 96 18 -3 22 -8 24 -58 25 -30 1 -86 -5 -125 -12z m162
-20 c5 -14 -35 -26 -43 -13 -8 14 6 30 24 27 8 -2 17 -8 19 -14z m-274 -21
c-7 -2 -19 -2 -25 0 -7 3 -2 5 12 5 14 0 19 -2 13 -5z"/>
<path d="M12830 4883 c-163 -36 -352 -82 -357 -86 -7 -8 17 -71 39 -98 11 -16
20 -20 25 -13 5 6 18 13 31 17 19 4 21 3 11 -9 -10 -13 -7 -14 22 -9 18 3 37
11 40 17 4 6 20 8 38 5 17 -4 31 -2 31 3 0 5 7 7 15 4 8 -4 27 2 41 11 15 9
23 12 20 6 -9 -15 1 -14 60 4 27 8 61 15 75 15 14 0 34 9 44 20 17 19 17 22
-5 75 -25 62 -24 62 -130 38z m6 -78 c-17 -13 -18 -15 -3 -15 9 0 17 -4 17
-10 0 -11 -43 -14 -53 -4 -8 8 31 44 47 44 6 0 2 -7 -8 -15z m-153 -2 c-7 -2
-19 -2 -25 0 -7 3 -2 5 12 5 14 0 19 -2 13 -5z m74 -39 c-3 -3 -12 -4 -19 -1
-8 3 -5 6 6 6 11 1 17 -2 13 -5z"/>
<path d="M16185 4790 c-4 -6 -1 -9 7 -8 8 2 12 -4 10 -14 -2 -10 3 -18 11 -18
10 0 13 8 9 25 -4 25 -26 34 -37 15z"/>
<path d="M12877 4680 c-72 -17 -107 -30 -78 -30 7 0 11 -8 9 -18 -2 -11 3 -26
11 -36 16 -18 7 -36 -10 -19 -12 12 -49 6 -49 -8 0 -4 5 -11 10 -14 6 -3 10
-14 10 -24 0 -11 10 -22 23 -26 21 -6 21 -7 -8 -16 -16 -6 -52 -11 -80 -13
-27 -1 -61 -8 -75 -16 -14 -8 -29 -13 -33 -12 -10 3 1 -38 15 -55 19 -24 118
-8 103 16 -5 10 50 25 80 21 11 -1 21 -5 23 -10 4 -11 172 27 172 39 0 4 15 5
33 3 60 -7 65 14 27 121 -45 128 -45 128 -183 97z m128 -180 c3 -5 -1 -10 -9
-10 -8 0 -18 5 -21 10 -3 6 1 10 9 10 8 0 18 -4 21 -10z"/>
<path d="M12555 4590 c-3 -11 -4 -24 -1 -29 8 -12 42 -3 57 15 9 11 6 16 -16
24 -34 13 -33 13 -40 -10z"/>
<path d="M14697 4554 c-36 -33 -32 -59 8 -59 22 0 33 7 42 27 14 28 8 58 -11
58 -6 0 -24 -12 -39 -26z"/>
<path d="M12570 4540 c0 -5 7 -10 15 -10 8 0 15 5 15 10 0 6 -7 10 -15 10 -8
0 -15 -4 -15 -10z"/>
<path d="M14730 4470 c-12 -8 -9 -10 13 -10 16 0 26 4 22 10 -8 12 -16 12 -35
0z"/>
<path d="M9700 4458 c-44 -12 -58 -24 -43 -39 13 -13 124 7 135 24 17 27 -25
34 -92 15z m13 -25 c-7 -2 -19 -2 -25 0 -7 3 -2 5 12 5 14 0 19 -2 13 -5z"/>
<path d="M16955 4440 c-3 -5 -14 -10 -24 -10 -10 0 -24 -12 -31 -26 -12 -22
-12 -29 0 -51 21 -38 39 -40 37 -6 -2 22 3 29 21 31 24 4 32 -23 10 -31 -10
-4 -10 -7 -1 -17 10 -11 15 -11 28 0 17 14 16 14 18 -47 1 -25 6 -33 19 -33
10 0 18 -4 18 -9 0 -16 -36 -22 -64 -11 -22 8 -30 6 -48 -12 -21 -21 -21 -22
-2 -29 37 -15 128 -9 172 11 48 22 55 40 15 40 -43 0 -50 11 -49 70 1 83 -9
109 -49 126 -40 17 -61 18 -70 4z"/>
<path d="M12748 4403 c7 -3 16 -2 19 1 4 3 -2 6 -13 5 -11 0 -14 -3 -6 -6z"/>
<path d="M14763 4391 c-26 -22 -31 -51 -9 -51 8 0 27 5 41 10 19 7 26 16 23
32 -4 29 -27 33 -55 9z"/>
<path d="M10827 4276 c-4 -10 -1 -13 8 -9 8 3 12 9 9 14 -7 12 -11 11 -17 -5z"/>
<path d="M10590 4221 c0 -7 -5 -9 -12 -5 -7 5 -8 3 -3 -5 5 -9 10 -10 18 -2 6
6 8 14 4 18 -4 3 -7 1 -7 -6z"/>
<path d="M10510 4199 c0 -5 5 -7 10 -4 6 3 10 8 10 11 0 2 -4 4 -10 4 -5 0
-10 -5 -10 -11z"/>
<path d="M10360 4169 c0 -5 5 -7 10 -4 6 3 10 8 10 11 0 2 -4 4 -10 4 -5 0
-10 -5 -10 -11z"/>
<path d="M13065 4140 c-3 -5 1 -10 9 -10 9 0 16 5 16 10 0 6 -4 10 -9 10 -6 0
-13 -4 -16 -10z"/>
<path d="M12874 4095 c-24 -18 -7 -19 26 0 16 9 19 14 9 15 -8 0 -24 -7 -35
-15z"/>
<path d="M13089 4086 c-6 -13 -37 -41 -70 -62 -32 -21 -57 -39 -56 -40 1 -1
15 0 30 3 32 6 102 71 110 102 7 28 -1 26 -14 -3z"/>
<path d="M17200 4100 c0 -5 5 -10 10 -10 6 0 10 5 10 10 0 6 -4 10 -10 10 -5
0 -10 -4 -10 -10z"/>
<path d="M17111 4086 c-8 -9 -7 -13 4 -13 8 0 15 4 15 9 0 5 4 7 9 3 5 -3 12
-2 15 3 8 13 -32 12 -43 -2z"/>
<path d="M12766 4064 c-15 -14 -22 -44 -12 -44 3 0 14 14 26 30 22 31 13 41
-14 14z"/>
<path d="M13040 4070 c0 -5 5 -10 10 -10 6 0 10 5 10 10 0 6 -4 10 -10 10 -5
0 -10 -4 -10 -10z"/>
<path d="M12505 4024 c-33 -8 -101 -24 -151 -35 -74 -16 -93 -24 -97 -40 -5
-17 -9 -19 -26 -10 -27 15 -77 14 -93 -2 -7 -8 -20 -12 -28 -9 -11 3 -12 1 -4
-7 14 -15 6 -68 -12 -75 -11 -4 -13 0 -8 18 4 19 -1 26 -28 39 -27 13 -34 14
-40 2 -6 -9 -20 -11 -48 -8 -23 3 -59 -1 -89 -11 -27 -9 -57 -16 -66 -16 -41
0 -242 -55 -259 -71 -19 -17 -19 -19 4 -78 12 -34 27 -61 32 -61 23 0 244 53
252 60 5 5 2 19 -8 34 -19 30 -20 36 -4 36 6 0 20 8 31 18 17 14 19 14 15 1
-4 -9 2 -20 14 -28 11 -7 17 -15 14 -18 -3 -3 2 -11 11 -18 23 -17 232 27 251
52 9 13 15 15 20 6 5 -9 20 -9 57 -1 60 12 61 13 45 33 -10 13 -11 18 -1 28
10 9 15 8 25 -5 9 -12 16 -14 30 -6 12 7 21 7 29 -1 15 -15 72 -14 89 2 7 6
29 12 48 13 40 0 161 25 173 34 15 12 -33 117 -59 129 -30 13 -42 13 -119 -5z
m-338 -110 c3 -8 1 -20 -6 -27 -8 -8 -11 -8 -11 0 0 6 -3 18 -6 27 -3 9 -1 16
5 16 7 0 14 -7 18 -16z m253 6 c0 -5 -7 -7 -15 -4 -8 4 -15 8 -15 10 0 2 7 4
15 4 8 0 15 -4 15 -10z m40 -18 c0 -15 -11 -21 -27 -15 -12 5 -12 7 -1 14 17
11 28 11 28 1z"/>
<path d="M17130 3934 c-58 -13 -147 -33 -197 -45 -98 -22 -103 -26 -81 -74 14
-31 12 -31 140 -1 56 13 151 34 210 47 63 14 108 29 108 36 0 6 -4 23 -10 37
-12 32 -30 32 -170 0z m70 -33 c0 -11 -18 -17 -75 -26 -22 -4 -48 -9 -57 -12
-12 -3 -18 1 -18 11 0 11 9 16 28 16 15 0 34 5 42 10 19 12 80 13 80 1z m-160
-35 c0 -7 -14 -16 -31 -20 -48 -9 -59 -7 -59 10 0 10 6 14 15 11 8 -4 17 -2
20 3 9 15 55 12 55 -4z"/>
<path d="M10243 3904 c-3 -8 -1 -20 6 -27 8 -8 11 -8 11 2 0 9 4 8 15 -3 8 -8
15 -19 15 -25 0 -6 -7 -11 -15 -11 -8 0 -15 -4 -15 -10 0 -5 15 -10 34 -10 19
0 38 5 41 10 3 6 2 10 -3 10 -5 0 -12 18 -16 40 -6 36 -9 40 -36 40 -19 0 -33
-6 -37 -16z"/>
<path d="M18702 3725 c-156 -34 -285 -65 -288 -67 -5 -5 78 -226 101 -267 8
-14 22 -44 31 -66 24 -58 29 -25 6 37 -11 29 -17 59 -15 66 8 20 83 12 83 -9
0 -5 -9 -9 -20 -9 -23 0 -25 -9 -8 -45 7 -16 19 -25 35 -25 27 0 29 -8 6 -26
-16 -12 -13 -13 25 -14 23 0 42 2 42 4 0 17 -43 95 -56 100 -30 11 -3 28 35
21 47 -9 54 -14 41 -30 -7 -9 -5 -25 10 -60 11 -25 20 -53 20 -61 0 -16 -26
-19 -35 -4 -3 5 -20 3 -40 -7 -35 -17 -36 -20 -18 -70 10 -27 -27 -11 -42 17
-42 80 -31 -11 18 -150 22 -63 46 -127 53 -141 l13 -27 113 24 c62 14 129 28
148 32 l35 8 3 68 c2 54 0 71 -13 80 -15 11 -15 13 -1 25 25 21 22 127 -3 149
-11 10 -31 50 -45 90 -23 66 -24 72 -8 72 10 0 24 -6 31 -12 10 -11 11 -4 5
31 -7 42 -6 44 14 39 20 -6 22 -2 22 45 l0 51 -30 -29 c-39 -37 -39 -23 0 18
28 30 30 36 30 120 0 48 -3 87 -7 86 -5 -1 -135 -29 -291 -64z m198 -181 c0
-8 -4 -12 -10 -9 -5 3 -10 1 -10 -6 0 -7 -12 -25 -26 -40 l-27 -28 26 -68 c38
-102 40 -110 29 -94 -8 11 -11 9 -17 -8 -12 -39 -23 -25 -67 91 -27 72 -24 82
38 132 31 26 58 46 60 46 2 0 4 -7 4 -16z m-330 -58 c0 -2 -13 -6 -29 -8 -17
-2 -28 -1 -25 4 5 8 54 12 54 4z m224 -220 c-3 -8 -13 -17 -21 -20 -12 -5 -13
-3 -5 7 6 7 9 31 7 53 l-5 39 15 -32 c8 -18 12 -39 9 -47z m71 -116 c3 -5 -3
-10 -14 -10 -11 0 -23 5 -26 10 -3 6 3 10 14 10 11 0 23 -4 26 -10z m-155 -50
c11 -7 7 -10 -18 -10 -20 0 -31 4 -27 10 8 13 26 13 45 0z m108 -67 c-10 -2
-18 -8 -18 -13 0 -5 8 -11 18 -13 10 -3 6 -5 -10 -6 -30 -1 -31 0 -22 23 3 9
16 15 28 15 16 -1 17 -2 4 -6z"/>
<path d="M11270 3755 c-58 -14 -118 -29 -134 -35 -16 -5 -40 -10 -53 -10 -13
0 -21 -4 -18 -10 3 -5 0 -7 -8 -4 -8 3 -50 -2 -93 -11 -44 -10 -109 -23 -147
-31 -37 -7 -71 -15 -76 -18 -5 -3 -89 -22 -187 -42 -127 -25 -185 -41 -199
-55 -19 -19 -19 -19 0 -75 10 -31 25 -59 33 -61 7 -3 39 0 70 7 32 7 67 14 79
16 13 1 32 6 44 9 19 7 20 7 2 21 -16 12 -14 12 16 3 34 -12 39 -11 211 27 36
7 160 34 275 59 289 63 400 88 403 90 6 5 -39 114 -51 123 -25 21 -65 20 -167
-3z m-75 -64 c-3 -6 -16 -11 -28 -11 -21 1 -21 1 3 15 27 14 36 13 25 -4z"/>
<path d="M11860 3764 c0 -8 5 -12 10 -9 6 3 10 10 10 16 0 5 -4 9 -10 9 -5 0
-10 -7 -10 -16z"/>
<path d="M16950 3650 c0 -5 5 -10 11 -10 5 0 7 5 4 10 -3 6 -8 10 -11 10 -2 0
-4 -4 -4 -10z"/>
<path d="M18315 3640 c-16 -4 -86 -20 -155 -35 -69 -14 -174 -37 -235 -50 -60
-13 -204 -45 -320 -70 -115 -25 -217 -48 -226 -51 -13 -4 8 -68 126 -382 98
-261 147 -378 158 -380 13 -3 987 205 994 212 1 1 -50 139 -113 306 -63 168
-128 339 -143 380 -29 78 -36 84 -86 70z m3 -101 c-3 -8 -7 -3 -11 10 -4 17
-3 21 5 13 5 -5 8 -16 6 -23z m-216 -130 c189 -40 296 -195 228 -330 -23 -44
-43 -57 -64 -40 -7 6 -29 10 -47 9 -26 -2 -36 2 -43 18 -8 19 -12 20 -45 8
-42 -14 -69 -17 -170 -15 -71 1 -73 2 -53 19 18 15 19 25 14 87 -6 59 -10 70
-27 73 -11 2 -26 11 -32 20 -12 14 -16 13 -43 -13 -35 -34 -37 -48 -10 -82 25
-31 26 -75 3 -114 -21 -36 -28 -36 -58 -3 -25 27 -45 81 -45 119 0 42 48 121
106 174 47 44 70 57 114 67 71 16 107 17 172 3z m378 -449 c0 -5 -4 -10 -10
-10 -5 0 -10 5 -10 10 0 6 5 10 10 10 6 0 10 -4 10 -10z m-326 -66 c9 -3 16
-11 16 -16 0 -7 -5 -6 -14 1 -7 6 -22 9 -32 5 -16 -5 -16 -4 -4 5 18 13 15 12
34 5z m-14 -40 c0 -2 -7 -4 -15 -4 -8 0 -15 4 -15 10 0 5 7 7 15 4 8 -4 15 -8
15 -10z m-342 -62 c5 -17 -39 -33 -56 -20 -9 8 -10 14 0 25 13 16 50 14 56 -5z"/>
<path d="M17903 3296 c-14 -16 -7 -26 19 -26 11 0 18 7 18 20 0 23 -19 26 -37
6z"/>
<path d="M17985 3300 c-7 -12 2 -30 16 -30 5 0 9 9 9 20 0 21 -15 27 -25 10z"/>
<path d="M17980 3210 c0 -27 3 -30 34 -30 42 0 72 25 55 46 -6 8 -29 14 -50
14 -37 0 -39 -2 -39 -30z"/>
<path d="M17984 3146 c-3 -8 -4 -25 -2 -38 2 -18 10 -24 36 -26 36 -4 82 20
82 42 0 29 -106 48 -116 22z"/>
<path d="M17760 2790 c0 -5 7 -10 15 -10 8 0 15 5 15 10 0 6 -7 10 -15 10 -8
0 -15 -4 -15 -10z"/>
<path d="M17240 3403 c-36 -9 -67 -20 -68 -24 -2 -5 -8 -7 -13 -3 -12 7 -69
-5 -69 -14 0 -4 20 -18 45 -31 25 -13 45 -30 45 -37 0 -19 -10 -17 -34 6 -41
37 -196 61 -196 30 0 -5 16 -18 35 -30 19 -12 35 -26 35 -31 0 -5 -19 5 -43
22 -45 32 -74 37 -144 25 -29 -5 -47 -15 -59 -33 -16 -25 -16 -26 5 -20 16 4
21 1 21 -13 0 -13 9 -20 28 -22 19 -2 27 -9 27 -23 0 -17 -10 -21 -67 -30 -65
-10 -67 -11 -55 -32 43 -76 47 -87 36 -97 -7 -8 -14 -5 -24 8 -14 19 -15 18
-40 -7 l-26 -26 26 -17 c15 -10 41 -17 58 -16 18 0 62 3 99 5 37 2 73 -1 80
-6 9 -6 5 -7 -10 -4 -14 4 -30 -1 -40 -11 -10 -9 -28 -22 -41 -28 -18 -7 -24
-19 -25 -42 -1 -38 3 -39 33 -11 12 11 29 18 37 15 13 -5 13 -9 -1 -35 -8 -16
-23 -32 -34 -36 -11 -3 -27 -18 -36 -32 -16 -24 -16 -28 -1 -54 19 -31 20 -39
6 -39 -5 0 -10 6 -10 14 0 16 -34 31 -50 21 -6 -4 -8 -11 -5 -16 4 -5 -14 -18
-39 -29 -25 -10 -46 -25 -46 -31 0 -8 4 -9 13 0 8 6 16 8 20 5 3 -3 15 0 27 6
18 10 24 9 31 -1 7 -11 9 -10 9 4 0 14 5 17 23 11 30 -9 33 -12 19 -26 -7 -7
-12 -21 -12 -31 0 -17 5 -18 59 -12 l60 7 33 -51 c39 -60 40 -60 181 -27 56
14 181 41 277 61 96 20 178 40 182 44 4 3 -7 36 -24 73 -27 59 -32 65 -49 55
-27 -17 -37 2 -11 23 23 19 30 50 11 50 -15 0 -39 -26 -39 -44 0 -8 -8 -19
-17 -25 -16 -8 -14 -11 10 -22 31 -14 34 -34 11 -67 -10 -14 -25 -22 -45 -22
-38 0 -89 26 -89 45 0 8 -5 15 -11 15 -6 0 -9 9 -6 20 3 11 1 20 -5 20 -14 0
2 42 21 57 14 11 14 14 1 23 -13 8 -9 15 20 40 41 35 46 36 55 13 6 -17 7 -17
16 -1 5 10 17 14 29 11 29 -8 26 31 -5 93 -14 27 -25 54 -25 61 0 6 -8 25 -17
42 -13 23 -23 29 -38 25 -20 -5 -20 -5 -1 10 19 16 19 17 -9 98 -39 113 -63
168 -72 167 -4 -1 -37 -8 -73 -16z m43 -83 c3 -13 0 -20 -9 -20 -8 0 -14 2
-14 4 0 2 -3 11 -6 20 -4 10 -1 16 9 16 8 0 17 -9 20 -20z m-57 -112 c4 -6 2
-14 -4 -16 -20 -6 -13 -22 11 -23 16 -1 14 -3 -12 -10 -18 -6 -35 -8 -37 -6
-6 5 19 67 28 67 4 0 10 -5 14 -12z m131 -54 c-3 -3 -12 -4 -19 -1 -8 3 -5 6
6 6 11 1 17 -2 13 -5z m-237 -24 c11 -7 5 -10 -23 -10 -23 0 -36 4 -32 10 8
13 35 13 55 0z m105 -38 c-3 -3 -11 0 -18 7 -9 10 -8 11 6 5 10 -3 15 -9 12
-12z m99 -7 c9 -14 23 -25 32 -25 14 0 14 -2 0 -15 -8 -8 -19 -15 -25 -15 -6
0 -11 -5 -11 -11 0 -6 -5 -9 -11 -7 -18 6 -11 23 13 29 21 6 21 7 -9 14 -36 8
-58 29 -48 45 11 18 42 11 59 -15z m-234 -19 c0 -3 -4 -8 -10 -11 -5 -3 -10
-1 -10 4 0 6 5 11 10 11 6 0 10 -2 10 -4z m76 -7 c8 -13 -13 -29 -38 -29 -17
0 -17 1 0 19 20 23 28 25 38 10z m-188 -26 c-10 -2 -26 -2 -35 0 -10 3 -2 5
17 5 19 0 27 -2 18 -5z m405 -28 c-10 -13 -21 -25 -25 -25 -5 0 -17 -9 -28
-20 -24 -24 -40 -26 -40 -4 0 12 -6 15 -26 10 -21 -6 -25 -4 -22 11 3 14 13
18 50 18 30 0 54 6 65 17 29 27 47 22 26 -7z m-596 9 c-3 -3 -12 -4 -19 -1 -8
3 -5 6 6 6 11 1 17 -2 13 -5z m653 -49 c20 -24 -2 -41 -24 -20 -9 9 -16 21
-16 26 0 14 26 10 40 -6z m-300 1 c0 -3 -4 -8 -10 -11 -5 -3 -10 -1 -10 4 0 6
5 11 10 11 6 0 10 -2 10 -4z m180 -46 c0 -5 7 -10 15 -10 20 0 19 -26 -1 -34
-13 -5 -14 -9 -4 -21 10 -12 10 -15 -1 -15 -18 1 -50 25 -43 33 3 3 -2 17 -11
31 l-17 26 31 0 c17 0 31 -4 31 -10z m-320 -10 c8 -5 16 -19 16 -31 1 -18 -3
-20 -29 -15 -16 3 -41 6 -54 6 -22 0 -24 2 -12 16 11 14 43 32 59 33 3 0 12
-4 20 -9z m-90 -113 c0 -7 -5 -18 -12 -25 -9 -9 -7 -12 13 -12 28 0 57 -36 41
-52 -13 -13 -56 -3 -76 18 -21 21 -20 61 2 73 23 14 32 13 32 -2z m109 -3 c5
4 7 -3 3 -16 -3 -14 -2 -19 6 -14 19 12 14 -9 -7 -28 -27 -25 -48 -10 -24 16
17 19 17 20 0 33 -9 6 -17 16 -17 20 0 4 7 2 15 -5 8 -6 18 -9 24 -6z m-50
-17 c6 -8 8 -17 4 -20 -7 -8 -33 11 -33 24 0 13 16 11 29 -4z m281 3 c0 -5 -7
-10 -15 -10 -8 0 -15 5 -15 10 0 6 7 10 15 10 8 0 15 -4 15 -10z m-46 -82 c-7
-10 -34 -10 -34 0 0 4 5 13 12 20 9 9 14 9 19 0 4 -7 5 -16 3 -20z m7 -33 c-1
-15 -24 -12 -29 3 -3 9 2 13 12 10 10 -1 17 -7 17 -13z m-86 -5 c9 -15 -14
-40 -37 -40 -23 0 -36 29 -17 41 19 12 46 11 54 -1z"/>
<path d="M17085 2649 c-10 -15 3 -25 16 -12 7 7 7 13 1 17 -6 3 -14 1 -17 -5z"/>
<path d="M13042 3387 c-20 -9 -23 -16 -17 -46 8 -40 19 -51 53 -51 21 0 62 31
62 48 0 10 -12 25 -35 42 -19 14 -19 14 -4 -5 8 -11 15 -27 15 -35 -1 -14 -8
-16 -35 -11 -16 2 -23 41 -11 56 14 17 4 18 -28 2z"/>
<path d="M9383 3365 c-38 -37 -26 -73 21 -61 29 7 51 53 35 72 -15 19 -30 16
-56 -11z"/>
<path d="M9420 3280 c-12 -8 -11 -10 8 -10 12 0 22 5 22 10 0 13 -11 13 -30 0z"/>
<path d="M16455 3231 c-96 -20 -130 -31 -129 -42 1 -8 26 -77 56 -154 30 -77
79 -202 108 -278 48 -125 55 -137 74 -131 31 10 70 38 58 42 -5 1 -8 12 -5 22
5 19 28 31 68 35 11 1 23 3 28 4 4 0 7 8 7 16 0 8 4 15 8 15 4 0 16 14 26 30
14 25 15 34 6 45 -10 12 -10 18 0 30 21 25 -2 41 -42 28 -18 -5 -39 -8 -46 -5
-20 6 -14 32 9 32 25 0 20 22 -6 26 -21 3 -64 -25 -65 -42 0 -7 -7 -15 -16
-18 -22 -9 -24 -8 -24 9 0 9 -9 15 -25 15 -14 0 -34 9 -45 20 l-20 20 38 2
c20 1 46 2 57 3 35 2 46 14 35 36 -6 10 -17 19 -24 19 -7 0 -20 8 -28 18 -19
20 -13 81 8 89 8 3 14 16 14 29 0 13 8 31 19 41 10 10 21 30 25 46 8 34 3 34
-169 -2z m75 -181 c0 -5 -9 -10 -21 -10 -11 0 -17 5 -14 10 3 6 13 10 21 10 8
0 14 -4 14 -10z m-25 -40 c3 -5 -1 -10 -10 -10 -9 0 -13 5 -10 10 3 6 8 10 10
10 2 0 7 -4 10 -10z m-55 -40 c0 -5 -5 -10 -11 -10 -5 0 -7 5 -4 10 3 6 8 10
11 10 2 0 4 -4 4 -10z m192 -142 c-6 -6 -15 -8 -19 -4 -4 4 -1 11 7 16 19 12
27 3 12 -12z m-52 4 c0 -13 -12 -22 -22 -16 -10 6 -1 24 13 24 5 0 9 -4 9 -8z
m71 -75 c-10 -9 -15 -9 -24 4 -7 8 -21 21 -32 28 -14 9 -15 11 -3 7 10 -3 20
-1 23 4 3 6 16 1 27 -10 18 -16 19 -23 9 -33z"/>
<path d="M13108 3223 c-36 -9 -30 -79 8 -93 28 -11 72 3 80 25 7 17 -24 71
-34 59 -4 -3 -1 -9 6 -11 21 -8 14 -43 -8 -43 -24 0 -43 39 -28 58 11 12 6 13
-24 5z"/>
<path d="M9445 3198 l-20 -21 40 8 c46 8 49 10 40 24 -10 17 -38 12 -60 -11z"/>
<path d="M16185 3175 c-27 -7 -120 -28 -205 -46 -123 -27 -148 -35 -120 -39
26 -4 35 -10 37 -25 2 -24 -13 -35 -48 -35 -15 0 -32 -7 -39 -15 -15 -18 -13
-20 17 -29 16 -5 26 -2 35 13 12 19 13 19 31 3 17 -15 27 -15 160 12 78 16
151 31 163 34 17 3 25 -5 41 -45 11 -26 26 -65 33 -86 7 -21 18 -41 25 -44 8
-2 11 -11 8 -19 -3 -7 0 -27 5 -44 6 -16 7 -32 3 -34 -4 -3 -81 -21 -172 -41
-90 -19 -192 -42 -226 -50 -111 -27 -104 -31 -157 108 -25 68 -46 128 -46 134
0 6 10 17 21 25 17 11 22 25 23 71 0 32 -3 57 -9 57 -31 1 -485 -106 -485
-114 0 -6 18 -55 39 -110 22 -56 67 -177 101 -271 113 -308 141 -375 157 -375
9 0 54 9 102 20 47 11 138 31 201 44 63 14 228 50 365 80 138 30 267 58 288
61 22 4 36 12 34 19 -2 6 -66 179 -143 383 -156 419 -134 385 -239 358z m-730
-435 c3 -5 -1 -10 -9 -10 -9 0 -16 5 -16 10 0 6 4 10 9 10 6 0 13 -4 16 -10z
m630 -169 c3 -5 -4 -13 -16 -16 -23 -8 -34 -1 -24 14 8 13 32 14 40 2z m-8
-151 c3 -10 2 -11 -4 -4 -4 7 -17 14 -28 17 -16 5 -15 5 4 4 14 -1 26 -9 28
-17z m-368 -76 c11 -10 -12 -34 -32 -34 -32 0 -38 8 -24 31 10 16 39 18 56 3z"/>
<path d="M15670 2330 c0 -5 7 -10 15 -10 8 0 15 5 15 10 0 6 -7 10 -15 10 -8
0 -15 -4 -15 -10z"/>
<path d="M12004 3128 l-31 -10 13 -42 c42 -130 52 -149 82 -161 17 -8 32 -23
35 -37 9 -36 64 -63 100 -49 37 14 35 34 -4 29 -36 -6 -37 -4 -85 130 -61 171
-51 159 -110 140z"/>
<path d="M11886 3101 c-4 -7 -5 -15 -2 -18 9 -9 19 4 14 18 -4 11 -6 11 -12 0z"/>
<path d="M12347 3073 c-10 -17 3 -85 22 -117 12 -18 21 -47 21 -63 0 -28 -4
-32 -46 -42 -48 -12 -55 -32 -13 -37 32 -4 106 14 149 36 19 9 47 20 63 24 39
9 34 27 -5 19 -18 -3 -35 -7 -37 -9 -2 -2 -18 15 -36 37 -21 27 -30 48 -28 63
6 31 -36 95 -64 96 -12 0 -24 -3 -26 -7z m33 -64 c0 -10 -4 -19 -10 -19 -5 0
-10 12 -10 26 0 14 4 23 10 19 6 -3 10 -15 10 -26z"/>
<path d="M11686 3061 c-21 -4 -30 -13 -33 -30 -8 -54 -51 -66 -109 -31 -30 19
-38 20 -98 9 -36 -7 -70 -15 -76 -19 -7 -4 1 -38 25 -99 19 -51 35 -95 35 -97
0 -13 -116 -2 -148 15 -40 20 -102 78 -102 94 0 21 -346 -12 -365 -35 -1 -2
27 -83 64 -180 58 -157 69 -177 89 -178 26 0 27 3 6 63 -9 26 -14 53 -11 60 2
7 39 21 81 31 89 23 92 21 120 -56 10 -27 24 -48 32 -48 30 0 387 81 444 101
33 11 63 18 68 15 8 -5 119 17 127 26 3 2 -1 19 -8 37 -11 30 -15 32 -45 27
-19 -3 -53 -15 -78 -26 -36 -18 -165 -52 -184 -49 -3 0 18 9 45 18 50 18 53
23 40 68 -6 19 -2 22 50 33 31 6 62 9 70 6 9 -3 27 22 56 78 l43 84 -31 26
c-18 15 -35 36 -38 46 -7 20 -18 22 -69 11z m-206 -182 c0 -11 -4 -17 -10 -14
-5 3 -10 15 -10 26 0 11 5 17 10 14 6 -3 10 -15 10 -26z m-330 -19 c0 -12 -69
-90 -79 -90 -8 0 -35 70 -29 74 22 19 108 32 108 16z m353 -27 c-7 -2 -19 -2
-25 0 -7 3 -2 5 12 5 14 0 19 -2 13 -5z"/>
<path d="M13163 3053 c-7 -2 -13 -22 -13 -43 0 -45 19 -56 76 -45 25 4 34 11
34 26 0 27 -18 59 -32 59 -9 0 -9 -3 0 -12 19 -19 15 -48 -8 -48 -24 0 -43 39
-28 58 11 13 -4 16 -29 5z"/>
<path d="M10787 3022 c-22 -24 -21 -45 1 -65 40 -37 131 -4 115 40 -15 44 -86
59 -116 25z"/>
<path d="M12691 2984 c-12 -9 -43 -19 -69 -23 -56 -7 -64 -26 -29 -66 l23 -28
82 18 c67 15 82 21 82 36 0 11 -6 19 -14 19 -8 0 -17 9 -21 19 -10 34 -29 42
-54 25z"/>
<path d="M11213 2957 c-49 -11 -63 -42 -15 -33 15 2 49 8 77 11 46 6 48 8 30
21 -21 16 -32 16 -92 1z"/>
<path d="M16765 2960 c-7 -12 18 -24 37 -18 8 3 5 9 -9 16 -14 8 -24 9 -28 2z"/>
<path d="M18847 2880 c-65 -16 -121 -31 -124 -34 -3 -2 9 -46 27 -95 30 -84
49 -107 65 -81 3 6 23 10 43 10 20 0 60 6 87 13 l50 13 3 102 c3 120 19 112
-151 72z"/>
<path d="M11990 2876 c0 -14 71 -106 88 -115 20 -10 202 29 205 44 3 18 -35
17 -88 -1 -63 -21 -81 -15 -100 30 -8 19 -20 38 -27 43 -17 11 -78 10 -78 -1z"/>
<path d="M13222 2882 c-21 -14 -11 -73 14 -84 29 -14 71 -3 83 21 8 14 6 25
-10 45 -12 15 -24 25 -26 22 -3 -3 2 -12 10 -21 18 -17 12 -45 -8 -45 -20 0
-38 28 -32 50 5 21 -8 26 -31 12z"/>
<path d="M10391 2862 c-41 -10 -76 -22 -78 -28 -2 -6 4 -20 14 -32 l18 -21 90
21 c50 11 91 22 93 23 1 1 -3 14 -9 29 -14 30 -24 31 -128 8z"/>
<path d="M9758 2850 c-19 -30 -95 -75 -161 -96 -54 -17 -58 -20 -52 -43 13
-51 34 -91 49 -91 12 0 132 25 314 65 20 5 22 10 17 38 -5 25 -1 39 15 60 l21
27 -28 11 c-35 14 -146 49 -155 49 -4 0 -13 -9 -20 -20z"/>
<path d="M9704 2839 c-24 -26 -76 -53 -133 -69 -23 -6 -41 -13 -39 -15 16 -16
174 54 193 85 13 21 -2 20 -21 -1z"/>
<path d="M9654 2828 l-19 -21 28 18 c28 18 33 25 19 25 -5 0 -17 -10 -28 -22z"/>
<path d="M12120 2825 c0 -8 7 -15 16 -15 14 0 14 3 4 15 -7 8 -14 15 -16 15
-2 0 -4 -7 -4 -15z"/>
<path d="M18595 2825 c-27 -7 -117 -27 -200 -45 -82 -17 -197 -42 -255 -55
-58 -13 -184 -40 -280 -61 -96 -20 -178 -40 -183 -44 -7 -6 47 -168 62 -183 6
-6 218 36 316 64 43 12 119 62 109 72 -3 3 11 10 32 16 73 19 139 23 202 11
58 -10 77 -9 192 16 71 15 134 30 141 34 17 11 -50 190 -71 189 -8 0 -37 -7
-65 -14z"/>
<path d="M9570 2794 c-31 -8 -37 -13 -20 -13 14 0 39 6 55 14 37 17 24 16 -35
-1z"/>
<path d="M9995 2797 c-13 -10 -16 -21 -11 -40 7 -29 25 -37 22 -11 0 9 5 19
12 21 9 3 12 -2 10 -13 -2 -11 2 -18 10 -16 7 1 12 -8 12 -23 0 -14 5 -25 12
-25 24 0 -3 -13 -28 -14 -15 -1 -29 -7 -32 -13 -5 -18 89 -17 113 1 18 13 18
14 -3 20 -18 6 -22 15 -22 51 0 66 -46 97 -95 62z"/>
<path d="M17360 2790 c0 -5 6 -10 14 -10 9 0 12 -7 9 -21 -5 -16 -2 -20 8 -15
8 3 22 9 32 12 24 9 21 17 -10 32 -33 15 -53 16 -53 2z"/>
<path d="M15892 2771 c4 -13 18 -16 19 -4 0 4 -5 9 -11 12 -7 2 -11 -2 -8 -8z"/>
<path d="M17559 2596 c-30 -7 -64 -16 -75 -21 -19 -8 -31 -10 -71 -13 -35 -3
-27 -16 26 -42 28 -14 47 -30 44 -37 -4 -9 -13 -7 -32 8 -36 27 -128 50 -168
43 -18 -4 -33 -10 -33 -14 0 -4 18 -19 40 -34 56 -37 50 -42 -7 -6 -37 24 -57
30 -97 29 -71 -1 -97 -11 -108 -38 -6 -18 -5 -22 6 -18 9 4 17 -2 21 -14 4
-12 15 -19 31 -19 17 0 24 -6 24 -19 0 -26 -8 -30 -69 -35 -29 -2 -55 -6 -58
-9 -3 -3 3 -20 14 -37 17 -30 20 -31 63 -26 25 4 95 18 155 32 61 14 136 31
168 37 40 7 61 16 68 29 8 15 13 17 24 8 11 -9 33 -7 90 5 70 16 76 19 72 39
-11 42 -60 166 -66 165 -3 -1 -31 -7 -62 -13z"/>
<path d="M16758 2422 c-71 -14 -128 -31 -128 -37 0 -5 15 -48 32 -93 l33 -84
45 6 c24 3 48 13 53 21 4 8 19 15 32 15 16 0 25 6 25 16 0 9 9 27 20 41 11 14
20 34 20 45 0 10 6 21 14 24 12 4 36 53 36 70 0 9 -64 0 -182 -24z"/>
<path d="M16290 2320 c-140 -31 -354 -79 -475 -105 -121 -26 -223 -50 -226
-54 -11 -10 57 -176 73 -179 7 -1 171 32 363 74 444 96 619 134 622 134 9 0
-1 34 -29 107 -27 67 -37 83 -53 82 -11 -1 -135 -27 -275 -59z"/>
<path d="M16938 2293 c7 -3 16 -2 19 1 4 3 -2 6 -13 5 -11 0 -14 -3 -6 -6z"/>
<path d="M10613 2108 c-42 -11 -57 -33 -29 -44 23 -9 121 21 121 37 0 18 -36
20 -92 7z m20 -25 c-7 -2 -19 -2 -25 0 -7 3 -2 5 12 5 14 0 19 -2 13 -5z"/>
<path d="M13035 1970 c3 -5 8 -10 11 -10 2 0 4 5 4 10 0 6 -5 10 -11 10 -5 0
-7 -4 -4 -10z"/>
<path d="M12442 1948 c-19 -10 -21 -16 -16 -47 4 -20 10 -40 14 -46 5 -5 15
-32 22 -60 13 -42 20 -50 46 -57 22 -6 32 -16 37 -36 8 -38 63 -66 101 -52 34
13 25 36 -12 33 -29 -2 -30 -1 -80 135 -53 145 -61 155 -112 130z"/>
<path d="M12320 1921 c0 -17 18 -21 24 -6 3 9 0 15 -9 15 -8 0 -15 -4 -15 -9z"/>
<path d="M12794 1900 c-15 -15 0 -106 20 -126 9 -8 16 -29 16 -45 0 -16 1 -32
3 -36 1 -5 -18 -13 -42 -19 -25 -6 -46 -15 -49 -22 -9 -27 130 -13 179 19 13
9 39 20 57 23 44 10 42 29 -3 20 -30 -5 -38 -2 -65 27 -22 25 -30 43 -30 71 0
21 -4 38 -10 38 -5 0 -16 14 -25 30 -16 31 -33 38 -51 20z m28 -75 c-12 -22
-27 -2 -18 22 5 12 10 13 17 6 7 -7 8 -17 1 -28z"/>
<path d="M12118 1883 c-11 -3 -18 -14 -18 -27 0 -36 -33 -60 -72 -52 -17 3
-40 14 -50 23 -16 14 -26 15 -86 4 -37 -7 -73 -15 -79 -19 -8 -5 -1 -33 23
-96 19 -48 34 -92 34 -97 0 -14 -72 -10 -122 7 -26 8 -66 35 -93 61 l-48 46
-86 -2 c-87 -2 -239 -26 -254 -41 -9 -8 4 -47 82 -250 39 -104 49 -117 76
-107 11 5 10 15 -6 58 -11 28 -18 57 -16 63 6 14 150 51 169 44 8 -3 23 -31
33 -63 l20 -56 35 6 c40 7 340 73 361 79 98 28 134 36 188 45 35 6 66 12 68
15 2 2 -3 20 -11 40 l-15 35 -53 -18 c-29 -11 -68 -27 -85 -36 -18 -9 -37 -14
-42 -11 -5 3 -28 -1 -51 -9 -23 -8 -45 -15 -49 -15 -14 1 45 29 62 30 23 0 30
20 18 53 -10 25 -8 26 37 37 26 6 57 12 69 13 29 3 34 9 78 91 29 54 34 70 23
77 -7 5 -16 9 -20 9 -3 0 -16 16 -28 35 -22 35 -42 41 -92 28z m-195 -173 c6
-24 -8 -36 -17 -14 -8 22 -7 34 3 34 5 0 11 -9 14 -20z m-332 -38 c-5 -9 -25
-32 -45 -51 l-35 -34 -15 38 c-9 21 -14 40 -12 42 8 8 101 30 109 26 4 -2 3
-12 -2 -21z m352 -19 c-7 -2 -19 -2 -25 0 -7 3 -2 5 12 5 14 0 19 -2 13 -5z"/>
<path d="M11227 1842 c-23 -25 -21 -48 5 -66 31 -22 74 -20 98 4 24 24 24 29
4 58 -20 28 -83 31 -107 4z"/>
<path d="M13132 1804 c-13 -9 -44 -19 -70 -23 -55 -7 -62 -24 -30 -64 l23 -28
80 17 c44 9 84 20 88 24 5 4 0 16 -11 26 -11 11 -25 29 -31 42 -14 26 -19 27
-49 6z"/>
<path d="M11675 1785 c-5 -2 -22 -6 -37 -9 -16 -4 -28 -11 -28 -16 0 -12 57
-12 115 -1 38 6 39 8 18 19 -21 11 -47 14 -68 7z"/>
<path d="M12435 1699 c-6 -9 72 -108 92 -116 8 -3 38 -1 66 5 29 7 76 17 105
23 53 11 53 11 28 24 -22 12 -33 11 -82 -6 -31 -11 -64 -17 -73 -14 -10 3 -26
24 -37 48 -17 38 -22 42 -57 43 -21 1 -40 -2 -42 -7z"/>
<path d="M12560 1645 c0 -8 7 -15 15 -15 8 0 15 4 15 9 0 5 -7 11 -15 15 -9 3
-15 0 -15 -9z"/>
<path d="M10313 1021 c-24 -20 -31 -55 -13 -66 20 -12 59 7 68 35 17 47 -15
65 -55 31z"/>
<path d="M10340 930 c0 -5 9 -10 20 -10 11 0 20 5 20 10 0 6 -9 10 -20 10 -11
0 -20 -4 -20 -10z"/>
<path d="M10383 861 c-13 -11 -23 -22 -23 -25 0 -9 26 -7 55 4 23 9 25 13 15
25 -16 19 -20 19 -47 -4z"/>
<path d="M8520 90 l0 -90 90 0 c67 0 90 3 90 13 0 10 -16 12 -65 9 l-65 -4 0
56 0 56 70 0 c68 0 70 1 70 25 0 25 0 25 -95 25 l-95 0 0 -90z"/>
<path d="M9345 133 c-3 -15 -15 -33 -26 -41 -23 -16 -25 -32 -4 -32 10 0 15
-10 15 -30 0 -25 4 -30 25 -30 21 0 25 5 25 30 0 28 2 30 40 30 33 0 40 3 40
20 0 17 -7 20 -40 20 -38 0 -40 2 -40 30 0 38 -25 40 -35 3z"/>
<path d="M8823 85 c-17 -7 -39 -27 -47 -44 -21 -39 -20 -41 9 -41 14 0 25 6
25 13 0 21 34 47 59 47 33 0 61 -18 61 -40 0 -15 7 -20 25 -20 28 0 30 8 14
44 -12 26 -64 56 -96 56 -10 -1 -32 -7 -50 -15z"/>
<path d="M9092 89 c-24 -7 -32 -14 -28 -25 3 -9 6 -17 6 -19 0 -2 15 2 34 7
47 15 82 4 90 -27 9 -34 46 -35 46 -1 0 58 -71 89 -148 65z"/>
<path d="M9520 50 c0 -47 2 -50 25 -50 23 0 25 3 25 50 0 47 -2 50 -25 50 -23
0 -25 -3 -25 -50z"/>
<path d="M9690 50 c0 -47 2 -50 25 -50 23 0 25 3 25 50 0 47 -2 50 -25 50 -23
0 -25 -3 -25 -50z"/>
<path d="M9820 50 c0 -46 2 -50 25 -50 13 0 35 11 49 25 14 14 37 25 51 25 20
0 25 5 25 25 0 33 -29 33 -68 0 -31 -26 -42 -24 -42 7 0 11 -7 18 -20 18 -17
0 -20 -7 -20 -50z"/>
<path d="M10084 90 c-25 -10 -64 -57 -64 -76 0 -23 38 -16 51 9 16 29 28 37
62 37 21 0 32 -8 45 -30 11 -19 25 -30 39 -30 20 0 21 2 11 31 -18 53 -88 82
-144 59z"/>
<path d="M10344 94 c-31 -7 -56 -39 -52 -66 2 -18 10 -24 37 -26 31 -3 33 -2
22 12 -7 9 -10 23 -7 32 5 14 16 16 60 10 42 -5 55 -3 60 9 3 8 1 17 -4 20
-13 8 -92 14 -116 9z"/>
</g>
</svg>
