<svg width="44" height="44" viewBox="0 0 44 44" fill="none" xmlns="http://www.w3.org/2000/svg">
<rect x="0.5" y="0.5" width="43" height="43" rx="21.5" stroke="#FAFAFA"/>
<path d="M21.875 18.207C24.0898 18.207 25.918 20.0352 25.918 22.25C25.918 24.5 24.0898 26.293 21.875 26.293C19.625 26.293 17.832 24.5 17.832 22.25C17.832 20.0352 19.625 18.207 21.875 18.207ZM21.875 24.8867C23.3164 24.8867 24.4766 23.7266 24.4766 22.25C24.4766 20.8086 23.3164 19.6484 21.875 19.6484C20.3984 19.6484 19.2383 20.8086 19.2383 22.25C19.2383 23.7266 20.4336 24.8867 21.875 24.8867ZM27.0078 18.0664C27.0078 17.5391 26.5859 17.1172 26.0586 17.1172C25.5312 17.1172 25.1094 17.5391 25.1094 18.0664C25.1094 18.5938 25.5312 19.0156 26.0586 19.0156C26.5859 19.0156 27.0078 18.5938 27.0078 18.0664ZM29.6797 19.0156C29.75 20.3164 29.75 24.2188 29.6797 25.5195C29.6094 26.7852 29.3281 27.875 28.4141 28.8242C27.5 29.7383 26.375 30.0195 25.1094 30.0898C23.8086 30.1602 19.9062 30.1602 18.6055 30.0898C17.3398 30.0195 16.25 29.7383 15.3008 28.8242C14.3867 27.875 14.1055 26.7852 14.0352 25.5195C13.9648 24.2188 13.9648 20.3164 14.0352 19.0156C14.1055 17.75 14.3867 16.625 15.3008 15.7109C16.25 14.7969 17.3398 14.5156 18.6055 14.4453C19.9062 14.375 23.8086 14.375 25.1094 14.4453C26.375 14.5156 27.5 14.7969 28.4141 15.7109C29.3281 16.625 29.6094 17.75 29.6797 19.0156ZM27.9922 26.8906C28.4141 25.8711 28.3086 23.4102 28.3086 22.25C28.3086 21.125 28.4141 18.6641 27.9922 17.6094C27.7109 16.9414 27.1836 16.3789 26.5156 16.1328C25.4609 15.7109 23 15.8164 21.875 15.8164C20.7148 15.8164 18.2539 15.7109 17.2344 16.1328C16.5312 16.4141 16.0039 16.9414 15.7227 17.6094C15.3008 18.6641 15.4062 21.125 15.4062 22.25C15.4062 23.4102 15.3008 25.8711 15.7227 26.8906C16.0039 27.5938 16.5312 28.1211 17.2344 28.4023C18.2539 28.8242 20.7148 28.7188 21.875 28.7188C23 28.7188 25.4609 28.8242 26.5156 28.4023C27.1836 28.1211 27.7461 27.5938 27.9922 26.8906Z" fill="#FAFAFA"/>
</svg>
