<svg id="Logo" xmlns="http://www.w3.org/2000/svg" width="364.819" height="26.625" viewBox="0 0 364.819 26.625">
  <path id="Pfad_8" data-name="Pfad 8" d="M35.073,1.42H6.122a6.324,6.324,0,0,0,.337,8.473l.208.214L0,26.306H23.631c8.081,0,12.128-3.208,14.081-8.087.79-1.837.851-4.843-2.369-5.681V12.47a8.572,8.572,0,0,0,5.3-4.843C42.3,3.655,40.718,1.42,35.073,1.42ZM26.123,18.3c-.465,1.114-1.463,1.947-3.63,1.947H13.169l1.616-3.9H24.1C26.27,16.34,26.539,17.209,26.123,18.3Zm2.584-9.238c-.4.973-1.175,1.641-3.379,1.641h-8.24L18.428,7.5h8.234c2.2-.012,2.437.649,2.045,1.555Z" transform="translate(0 -0.551)" fill="#fff"/>
  <path id="Pfad_9" data-name="Pfad 9" d="M93.629,0C87.017,0,74.607.416,69.287,13.316s6.8,13.309,13.4,13.309,19.027-.416,24.341-13.309S100.247,0,93.629,0Zm1.837,13.316c-2.082,5.051-5.724,7.04-10.169,7.04s-6.489-1.99-4.4-7.04,5.718-7.047,10.169-7.047,6.453,1.99,4.371,7.047Z" transform="translate(-26.359 0)" fill="#fff"/>
  <path id="Pfad_10" data-name="Pfad 10" d="M162.194,1.42H140.962L130.72,26.306h21.464c9.183,0,15.617-3.673,19.2-12.44C175.16,4.7,171.554,1.42,162.194,1.42Zm-2.186,12.446c-1.616,3.937-4.555,6.165-9.55,6.165h-6.263l5.1-12.336h6.269C160.553,7.7,161.63,9.924,160.008,13.866Z" transform="translate(-50.692 -0.551)" fill="#fff"/>
  <path id="Pfad_11" data-name="Pfad 11" d="M219.783,11.179,218.558,1.42H206.1L211.016,19.3l-2.9,7h10.91l2.89-7L241.529,1.42H229.076Z" transform="translate(-79.924 -0.551)" fill="#fff"/>
  <path id="Pfad_12" data-name="Pfad 12" d="M297.2,10.457,284.9,8.712c-1.022-.141-1.169-.612-.894-1.292.416-1.041,1.837-1.775,5.106-1.775a7.662,7.662,0,0,1,3.159.527,1.334,1.334,0,0,1,.851,1.984h12.685C307.581,2.89,303.718,0,291.419,0c-8.975,0-16.707,1.745-19.346,8.191-1.426,3.483-.367,6.269,4.653,7L288.5,16.866c1.39.214,1.573.943,1.292,1.671-.478,1.188-1.751,2.026-5.155,2.026a8.163,8.163,0,0,1-3.5-.527c-.673-.349-.722-.937-.422-1.775h-13.15c-2.988,7.347,5.767,8.363,14.16,8.363,12.244,0,18.911-2.853,21.427-8.92C304.869,13.469,302.414,11.185,297.2,10.457Z" transform="translate(-103.526 0)" fill="#fff"/>
  <path id="Pfad_13" data-name="Pfad 13" d="M360.578,1.42,357,10.1H344.747l3.575-8.681h-10.91L327.17,26.306h10.9l4.1-9.936h12.263l-4.1,9.936h10.91L371.488,1.42Z" transform="translate(-126.873 -0.551)" fill="#fff"/>
  <path id="Pfad_14" data-name="Pfad 14" d="M410.923,1.42l-22,24.886h11.632l2.32-2.859h11.369v2.859h11.6L424.306,1.42Zm3.386,15.96h-6.569l6.734-8.43h.073Z" transform="translate(-150.819 -0.551)" fill="#fff"/>
  <path id="Pfad_15" data-name="Pfad 15" d="M499.46,1.42H484.994l-13.762,8.785,3.63-8.785h-10.91L453.71,26.306h10.9l2.767-6.691,4.751-2.859,3.624,9.55h14.5l-7.108-15.262Z" transform="translate(-175.944 -0.551)" fill="#fff"/>
  <path id="Pfad_16" data-name="Pfad 16" d="M519.51,26.306h29.355l2.492-6.067H532.911L534.27,16.9h17.136L553.9,10.83h-17.13l1.4-3.343h18.452l2.492-6.067H529.752Z" transform="translate(-201.461 -0.551)" fill="#fff"/>
  <path id="Pfad_17" data-name="Pfad 17" d="M591.367,5.755a1.767,1.767,0,0,0-.2-.227.915.915,0,0,0-.208-.11.918.918,0,0,0,.582-.275.752.752,0,0,0,.208-.539.8.8,0,0,0-.11-.416.717.717,0,0,0-.276-.282,1.134,1.134,0,0,0-.453-.116H589.39V6.674H590V5.449h.159a.613.613,0,0,1,.4.129,1.882,1.882,0,0,1,.41.612l.245.471h.735l-.349-.612A3.035,3.035,0,0,0,591.367,5.755ZM590.859,5a3.2,3.2,0,0,1-.612.037H590v-.82h.245a2.93,2.93,0,0,1,.612.043.432.432,0,0,1,.2.135.391.391,0,0,1,0,.441.381.381,0,0,1-.2.141Z" transform="translate(-228.56 -1.47)" fill="#fff"/>
  <path id="Pfad_18" data-name="Pfad 18" d="M592.054,2.975a2.534,2.534,0,0,0-1.022-1.01,2.768,2.768,0,0,0-2.712,0,2.533,2.533,0,0,0-1.022,1.01,2.8,2.8,0,0,0-.367,1.384,2.732,2.732,0,0,0,.361,1.365,2.576,2.576,0,0,0,1.016,1.022,2.729,2.729,0,0,0,2.737,0A2.58,2.58,0,0,0,592.06,5.73a2.773,2.773,0,0,0,0-2.749ZM591.6,5.461a2.124,2.124,0,0,1-.814.814,2.2,2.2,0,0,1-2.2,0,2.1,2.1,0,0,1-.82-.814,2.278,2.278,0,0,1-.288-1.1,2.22,2.22,0,0,1,.3-1.114,2.042,2.042,0,0,1,.814-.784,2.247,2.247,0,0,1,2.179,0,2.054,2.054,0,0,1,.82.814,2.215,2.215,0,0,1,0,2.216Z" transform="translate(-227.606 -0.624)" fill="#fff"/>
</svg>
