<svg width="18" height="18" viewBox="0 0 18 18" fill="none" xmlns="http://www.w3.org/2000/svg">
<g clip-path="url(#clip0_5000_464)">
<path d="M8.625 17.625C13.3885 17.625 17.25 13.7635 17.25 9C17.25 4.23654 13.3885 0.375 8.625 0.375C3.86154 0.375 0 4.23654 0 9C0 13.7635 3.86154 17.625 8.625 17.625Z" fill="#29A71A"/>
<path d="M12.4278 5.19718C11.5305 4.29087 10.3388 3.73506 9.06773 3.63C7.79666 3.52494 6.52989 3.87756 5.49591 4.62425C4.46193 5.37093 3.72881 6.46253 3.42878 7.70214C3.12876 8.94176 3.28159 10.2478 3.8597 11.3846L3.29221 14.1397C3.28632 14.1672 3.28615 14.1955 3.29172 14.223C3.29728 14.2505 3.30846 14.2765 3.32455 14.2995C3.34812 14.3344 3.38177 14.3612 3.421 14.3764C3.46023 14.3917 3.50317 14.3946 3.5441 14.3848L6.24431 13.7448C7.37797 14.3082 8.67478 14.4512 9.90397 14.1483C11.1332 13.8454 12.215 13.1162 12.9571 12.0905C13.6991 11.0648 14.0532 9.80906 13.9562 8.54681C13.8593 7.28455 13.3177 6.0976 12.4278 5.19718ZM11.5859 11.9168C10.965 12.536 10.1655 12.9447 9.30007 13.0853C8.43461 13.226 7.54681 13.0916 6.76181 12.7009L6.38545 12.5147L4.73004 12.9068L4.73494 12.8862L5.07798 11.22L4.89372 10.8564C4.49261 10.0686 4.35112 9.17413 4.4895 8.30104C4.62789 7.42796 5.03905 6.62107 5.66408 5.99597C6.44945 5.21085 7.5145 4.76979 8.62501 4.76979C9.73552 4.76979 10.8006 5.21085 11.5859 5.99597C11.5926 6.00364 11.5998 6.01085 11.6075 6.01753C12.3831 6.80469 12.8161 7.86655 12.8121 8.97163C12.808 10.0767 12.3673 11.1354 11.5859 11.9168Z" fill="white"/>
<path d="M11.4389 10.6947C11.236 11.0142 10.9155 11.4052 10.5127 11.5023C9.80704 11.6728 8.72401 11.5082 7.37635 10.2516L7.35969 10.2369C6.17473 9.13824 5.86698 8.22379 5.94147 7.49851C5.98263 7.08686 6.32567 6.71442 6.61481 6.47135C6.66052 6.43234 6.71472 6.40456 6.77309 6.39024C6.83145 6.37592 6.89236 6.37546 6.95094 6.38889C7.00951 6.40232 7.06414 6.42927 7.11044 6.46759C7.15673 6.5059 7.19343 6.55452 7.21758 6.60955L7.65373 7.58966C7.68207 7.65321 7.69257 7.72328 7.68411 7.79235C7.67565 7.86141 7.64854 7.92688 7.6057 7.98171L7.38517 8.2679C7.33786 8.32699 7.3093 8.39889 7.30319 8.47435C7.29708 8.54981 7.31368 8.62537 7.35087 8.69131C7.47437 8.90791 7.77036 9.22645 8.0987 9.52146C8.46722 9.8547 8.87593 10.1595 9.13468 10.2634C9.20391 10.2917 9.28004 10.2986 9.35323 10.2832C9.42643 10.2679 9.49334 10.2309 9.54535 10.1772L9.80116 9.91939C9.85052 9.87072 9.9119 9.836 9.97905 9.81879C10.0462 9.80157 10.1167 9.80246 10.1834 9.82138L11.2194 10.1154C11.2765 10.1329 11.3289 10.1633 11.3725 10.2042C11.4161 10.2451 11.4498 10.2954 11.471 10.3513C11.4922 10.4072 11.5003 10.4672 11.4948 10.5267C11.4892 10.5862 11.4701 10.6437 11.4389 10.6947Z" fill="white"/>
</g>
<defs>
<clipPath id="clip0_5000_464">
<rect width="17.25" height="17.25" fill="white" transform="translate(0 0.375)"/>
</clipPath>
</defs>
</svg>
